<?xml version="1.0" encoding="utf-8"?>
<svg version="1.1" xmlns:xlink="http://www.w3.org/1999/xlink" width="222px" height="222px" xmlns="http://www.w3.org/2000/svg">
  <g transform="matrix(1 0 0 1 -138 -200 )">
    <path d="M 67.8883928571429 8.79575892857143  C 81.5982142857143 2.93191964285714  95.96875 0  111 0  C 126.03125 0  140.401785714286 2.93191964285714  154.111607142857 8.79575892857143  C 167.821428571429 14.6595982142857  179.631696428571 22.546875  189.542410714286 32.4575892857143  C 199.453125 42.3683035714286  207.340401785714 54.1785714285714  213.204241071429 67.8883928571428  C 219.068080357143 81.5982142857143  222 95.96875  222 111  C 222 125.948660714286  219.088727678571 140.277901785714  213.266183035714 153.987723214286  C 207.443638392857 167.697544642857  199.577008928571 179.5078125  189.666294642857 189.418526785714  C 179.755580357143 199.329241071429  167.9453125 207.237165178571  154.235491071429 213.142299107143  C 140.525669642857 219.047433035714  126.113839285714 222  111 222  C 95.8861607142857 222  81.4743303571429 219.068080357143  67.7645089285714 213.204241071429  C 54.0546875 207.340401785714  42.2650669642857 199.432477678571  32.3956473214286 189.48046875  C 22.5262276785714 179.528459821429  14.6595982142857 167.718191964286  8.79575892857143 154.049665178571  C 2.93191964285714 140.381138392857  0 126.03125  0 111  C 0 95.96875  2.93191964285714 81.5982142857143  8.79575892857143 67.8883928571428  C 14.6595982142857 54.1785714285714  22.546875 42.3683035714286  32.4575892857143 32.4575892857143  C 42.3683035714286 22.546875  54.1785714285714 14.6595982142857  67.8883928571429 8.79575892857143  Z M 149.775669642857 126.857142857143  C 169.597098214286 126.857142857143  182.233258928571 140.360491071429  187.684151785714 167.3671875  C 199.989955357143 150.436383928571  206.142857142857 131.647321428571  206.142857142857 111  C 206.142857142857 98.1160714285714  203.623883928571 85.8102678571428  198.5859375 74.0825892857143  C 193.547991071429 62.3549107142857  186.775669642857 52.2377232142857  178.268973214286 43.7310267857143  C 169.762276785714 35.2243303571429  159.645089285714 28.4520089285714  147.917410714286 23.4140625  C 136.189732142857 18.3761160714286  123.883928571429 15.8571428571429  111 15.8571428571429  C 98.1160714285714 15.8571428571429  85.8102678571429 18.3761160714286  74.0825892857143 23.4140625  C 62.3549107142857 28.4520089285714  52.2377232142857 35.2243303571429  43.7310267857143 43.7310267857143  C 35.2243303571429 52.2377232142857  28.4520089285714 62.3549107142857  23.4140625 74.0825892857143  C 18.3761160714286 85.8102678571428  15.8571428571429 98.1160714285714  15.8571428571429 111  C 15.8571428571429 131.647321428571  22.0100446428571 150.436383928571  34.3158482142857 167.3671875  C 39.7667410714286 140.360491071429  52.4029017857143 126.857142857143  72.2243303571429 126.857142857143  C 83.0435267857143 137.428571428571  95.96875 142.714285714286  111 142.714285714286  C 126.03125 142.714285714286  138.956473214286 137.428571428571  149.775669642857 126.857142857143  Z M 144.634486607143 120.848772321429  C 153.92578125 111.557477678571  158.571428571429 100.345982142857  158.571428571429 87.2142857142857  C 158.571428571429 74.0825892857143  153.92578125 62.87109375  144.634486607143 53.5797991071428  C 135.343191964286 44.2885044642857  124.131696428571 39.6428571428572  111 39.6428571428572  C 97.8683035714286 39.6428571428572  86.6568080357143 44.2885044642857  77.3655133928571 53.5797991071428  C 68.07421875 62.87109375  63.4285714285714 74.0825892857143  63.4285714285714 87.2142857142857  C 63.4285714285714 100.345982142857  68.07421875 111.557477678571  77.3655133928571 120.848772321429  C 86.6568080357143 130.140066964286  97.8683035714286 134.785714285714  111 134.785714285714  C 124.131696428571 134.785714285714  135.343191964286 130.140066964286  144.634486607143 120.848772321429  Z " fill-rule="nonzero" fill="#b1b1b1" stroke="none" transform="matrix(1 0 0 1 138 200 )" />
  </g>
</svg>