<?xml version="1.0" encoding="utf-8"?>
<svg version="1.1" xmlns:xlink="http://www.w3.org/1999/xlink" width="43px" height="43px" xmlns="http://www.w3.org/2000/svg">
  <g transform="matrix(1 0 0 1 -1040 -563 )">
    <path d="M 13.1495535714286 1.70368303571429  C 15.8050595238095 0.567894345238095  18.5885416666667 0  21.5 0  C 24.4114583333333 0  27.1949404761905 0.567894345238095  29.8504464285714 1.70368303571429  C 32.5059523809524 2.83947172619047  34.7935267857143 4.3671875  36.7131696428571 6.28683035714286  C 38.6328125 8.20647321428572  40.1605282738095 10.4940476190476  41.2963169642857 13.1495535714286  C 42.4321056547619 15.8050595238095  43 18.5885416666667  43 21.5  C 43 24.3954613095238  42.4361049107143 27.1709449404762  41.3083147321429 29.8264508928571  C 40.1805245535714 32.4819568452381  38.6568080357143 34.76953125  36.7371651785714 36.6891741071429  C 34.8175223214286 38.6088169642857  32.5299479166667 40.1405319940476  29.8744419642857 41.2843191964286  C 27.2189360119048 42.4281063988095  24.4274553571429 43  21.5 43  C 18.5725446428571 43  15.7810639880952 42.4321056547619  13.1255580357143 41.2963169642857  C 10.4700520833333 40.1605282738095  8.18647693452381 38.6288132440476  6.27483258928571 36.701171875  C 4.36318824404762 34.7735305059524  2.83947172619048 32.4859561011905  1.70368303571429 29.8384486607143  C 0.567894345238095 27.1909412202381  0 24.4114583333333  0 21.5  C 0 18.5885416666667  0.567894345238095 15.8050595238095  1.70368303571429 13.1495535714286  C 2.83947172619048 10.4940476190476  4.3671875 8.20647321428572  6.28683035714286 6.28683035714286  C 8.20647321428571 4.3671875  10.4940476190476 2.83947172619047  13.1495535714286 1.70368303571429  Z M 29.0106026785714 24.5714285714286  C 32.8498883928571 24.5714285714286  35.2974330357143 27.1869419642857  36.3532366071429 32.41796875  C 38.7367931547619 29.1385788690476  39.9285714285714 25.4992559523809  39.9285714285714 21.5  C 39.9285714285714 19.0044642857143  39.440662202381 16.6209077380952  38.46484375 14.3493303571429  C 37.4890252976191 12.0777529761905  36.1772693452381 10.1181175595238  34.5295758928571 8.47042410714286  C 32.8818824404762 6.82273065476191  30.9222470238095 5.51097470238095  28.6506696428571 4.53515625  C 26.3790922619048 3.55933779761905  23.9955357142857 3.07142857142857  21.5 3.07142857142857  C 19.0044642857143 3.07142857142857  16.6209077380952 3.55933779761905  14.3493303571429 4.53515625  C 12.0777529761905 5.51097470238095  10.1181175595238 6.82273065476191  8.47042410714286 8.47042410714286  C 6.82273065476191 10.1181175595238  5.51097470238095 12.0777529761905  4.53515625 14.3493303571429  C 3.55933779761905 16.6209077380952  3.07142857142857 19.0044642857143  3.07142857142857 21.5  C 3.07142857142857 25.4992559523809  4.2632068452381 29.1385788690476  6.64676339285714 32.41796875  C 7.70256696428571 27.1869419642857  10.1501116071429 24.5714285714286  13.9893973214286 24.5714285714286  C 16.0850074404762 26.6190476190476  18.5885416666667 27.6428571428571  21.5 27.6428571428571  C 24.4114583333333 27.6428571428571  26.9149925595238 26.6190476190476  29.0106026785714 24.5714285714286  Z M 28.0147879464286 23.4076450892857  C 29.814453125 21.6079799107143  30.7142857142857 19.4363839285714  30.7142857142857 16.8928571428571  C 30.7142857142857 14.3493303571429  29.814453125 12.177734375  28.0147879464286 10.3780691964286  C 26.2151227678571 8.57840401785714  24.0435267857143 7.67857142857143  21.5 7.67857142857143  C 18.9564732142857 7.67857142857143  16.7848772321429 8.57840401785714  14.9852120535714 10.3780691964286  C 13.185546875 12.177734375  12.2857142857143 14.3493303571429  12.2857142857143 16.8928571428571  C 12.2857142857143 19.4363839285714  13.185546875 21.6079799107143  14.9852120535714 23.4076450892857  C 16.7848772321429 25.2073102678571  18.9564732142857 26.1071428571429  21.5 26.1071428571429  C 24.0435267857143 26.1071428571429  26.2151227678571 25.2073102678571  28.0147879464286 23.4076450892857  Z " fill-rule="nonzero" fill="#8d8d8d" stroke="none" transform="matrix(1 0 0 1 1040 563 )" />
  </g>
</svg>