<?xml version="1.0" encoding="utf-8"?>
<svg version="1.1" xmlns:xlink="http://www.w3.org/1999/xlink" width="22px" height="14px" xmlns="http://www.w3.org/2000/svg">
  <g transform="matrix(1 0 0 1 -320 -804 )">
    <path d="M 16.3342633928571 10.9678819444444  C 17.9752604166667 9.98350694444444  19.3400297619048 8.66087962962963  20.4285714285714 7  C 19.1845238095238 5.08796296296296  17.6253720238095 3.65798611111111  15.7511160714286 2.71006944444444  C 16.2503720238095 3.55266203703704  16.5 4.46412037037037  16.5 5.44444444444444  C 16.5 6.94328703703704  15.9618675595238 8.22540509259259  14.8856026785714 9.29079861111111  C 13.809337797619 10.3561921296296  12.5141369047619 10.8888888888889  11 10.8888888888889  C 9.4858630952381 10.8888888888889  8.19066220238095 10.3561921296296  7.11439732142857 9.29079861111111  C 6.03813244047619 8.22540509259259  5.5 6.94328703703704  5.5 5.44444444444444  C 5.5 4.46412037037037  5.74962797619048 3.55266203703704  6.24888392857143 2.71006944444444  C 4.37462797619048 3.65798611111111  2.81547619047619 5.08796296296296  1.57142857142857 7  C 2.65997023809524 8.66087962962963  4.02473958333333 9.98350694444444  5.66573660714286 10.9678819444444  C 7.30673363095238 11.9522569444444  9.08482142857143 12.4444444444444  11 12.4444444444444  C 12.9151785714286 12.4444444444444  14.6932663690476 11.9522569444444  16.3342633928571 10.9678819444444  Z M 11.4174107142857 2.74652777777778  C 11.531994047619 2.63310185185185  11.5892857142857 2.49537037037037  11.5892857142857 2.33333333333333  C 11.5892857142857 2.1712962962963  11.531994047619 2.03356481481481  11.4174107142857 1.92013888888889  C 11.3028273809524 1.80671296296296  11.1636904761905 1.75  11 1.75  C 9.97693452380952 1.75  9.0991443452381 2.11255787037037  8.36662946428572 2.83767361111111  C 7.63411458333333 3.56278935185185  7.26785714285714 4.43171296296296  7.26785714285714 5.44444444444444  C 7.26785714285714 5.60648148148148  7.32514880952381 5.74421296296296  7.43973214285714 5.85763888888889  C 7.55431547619048 5.97106481481481  7.69345238095238 6.02777777777778  7.85714285714286 6.02777777777778  C 8.02083333333333 6.02777777777778  8.15997023809524 5.97106481481481  8.27455357142857 5.85763888888889  C 8.38913690476191 5.74421296296296  8.44642857142857 5.60648148148148  8.44642857142857 5.44444444444444  C 8.44642857142857 4.74768518518519  8.69605654761905 4.15219907407407  9.1953125 3.65798611111111  C 9.69456845238095 3.16377314814815  10.296130952381 2.91666666666667  11 2.91666666666667  C 11.1636904761905 2.91666666666667  11.3028273809524 2.8599537037037  11.4174107142857 2.74652777777778  Z M 21.7544642857143 6.16145833333333  C 21.9181547619048 6.44502314814815  22 6.72453703703704  22 7  C 22 7.27546296296296  21.9181547619048 7.55497685185185  21.7544642857143 7.83854166666667  C 20.608630952381 9.70196759259259  19.0678943452381 11.1947337962963  17.1322544642857 12.3168402777778  C 15.1966145833333 13.4389467592593  13.1525297619048 14  11 14  C 8.84747023809524 14  6.80338541666667 13.4369212962963  4.86774553571429 12.3107638888889  C 2.93210565476191 11.1846064814815  1.39136904761905 9.69386574074074  0.245535714285714 7.83854166666667  C 0.0818452380952381 7.55497685185185  0 7.27546296296296  0 7  C 0 6.72453703703704  0.0818452380952381 6.44502314814815  0.245535714285714 6.16145833333333  C 1.39136904761905 4.30613425925926  2.93210565476191 2.81539351851852  4.86774553571429 1.68923611111111  C 6.80338541666667 0.563078703703703  8.84747023809524 0  11 0  C 13.1525297619048 0  15.1966145833333 0.563078703703703  17.1322544642857 1.68923611111111  C 19.0678943452381 2.81539351851852  20.608630952381 4.30613425925926  21.7544642857143 6.16145833333333  Z " fill-rule="nonzero" fill="#838383" stroke="none" transform="matrix(1 0 0 1 320 804 )" />
  </g>
</svg>