<?xml version="1.0" encoding="utf-8"?>
<svg version="1.1" xmlns:xlink="http://www.w3.org/1999/xlink" width="12px" height="11px" xmlns="http://www.w3.org/2000/svg">
  <g transform="matrix(1 0 0 1 -680 -510 )">
    <path d="M 6.79175946547884 9.24489182692308  C 6.83407572383074 9.20302483974359  6.85523385300668 9.15124198717949  6.85523385300668 9.08954326923077  L 6.85523385300668 7.83353365384615  C 6.85523385300668 7.77183493589744  6.83407572383074 7.72005208333333  6.79175946547884 7.67818509615385  C 6.74944320712695 7.63631810897436  6.69933184855234 7.61538461538462  6.64142538975501 7.61538461538462  L 5.35857461024499 7.61538461538462  C 5.30066815144766 7.61538461538462  5.25055679287305 7.63631810897436  5.20824053452116 7.67818509615385  C 5.16592427616926 7.72005208333333  5.14476614699332 7.77183493589744  5.14476614699332 7.83353365384615  L 5.14476614699332 9.08954326923077  C 5.14476614699332 9.15124198717949  5.16592427616926 9.20302483974359  5.20824053452116 9.24489182692308  C 5.25055679287305 9.28675881410256  5.30066815144766 9.30769230769231  5.35857461024499 9.30769230769231  L 6.64142538975501 9.30769230769231  C 6.69933184855234 9.30769230769231  6.74944320712695 9.28675881410256  6.79175946547884 9.24489182692308  Z M 6.771714922049 6.72626201923077  C 6.81403118040089 6.69761618589744  6.83741648106904 6.66125801282051  6.84187082405345 6.6171875  L 6.96213808463252 3.58293269230769  C 6.96213808463252 3.53004807692308  6.93986636971047 3.48818108974359  6.89532293986637 3.45733173076923  C 6.83741648106904 3.40885416666667  6.78396436525613 3.38461538461539  6.73496659242762 3.38461538461539  L 5.26503340757238 3.38461538461539  C 5.21603563474388 3.38461538461539  5.16258351893096 3.40885416666667  5.10467706013363 3.45733173076923  C 5.06013363028953 3.48818108974359  5.03786191536748 3.53445512820513  5.03786191536748 3.59615384615385  L 5.15144766146993 6.6171875  C 5.15144766146993 6.66125801282051  5.17371937639198 6.69761618589744  5.21826280623608 6.72626201923077  C 5.26280623608018 6.7549078525641  5.3162583518931 6.76923076923077  5.37861915367483 6.76923076923077  L 6.61469933184855 6.76923076923077  C 6.67706013363029 6.76923076923077  6.7293986636971 6.7549078525641  6.771714922049 6.72626201923077  Z M 6.43429844097996 0.118990384615385  C 6.56792873051225 0.198317307692308  6.67260579064588 0.306290064102563  6.74832962138085 0.442908653846154  L 11.8797327394209 9.75060096153846  C 12.0356347438753 10.0282451923077  12.0311804008909 10.3058894230769  11.8663697104677 10.5835336538462  C 11.7906458797327 10.7113381410256  11.6870824053452 10.8127003205128  11.5556792873051 10.8876201923077  C 11.424276169265 10.9625400641026  11.28285077951 11  11.1314031180401 11  L 0.868596881959911 11  C 0.717149220489978 11  0.575723830734967 10.9625400641026  0.444320712694878 10.8876201923077  C 0.312917594654788 10.8127003205128  0.209354120267261 10.7113381410256  0.133630289532294 10.5835336538462  C -0.0311804008908686 10.3058894230769  -0.0356347438752784 10.0282451923077  0.120267260579065 9.75060096153846  L 5.25167037861915 0.442908653846154  C 5.32739420935412 0.306290064102563  5.43207126948775 0.198317307692308  5.56570155902004 0.118990384615385  C 5.69933184855234 0.039663461538462  5.84409799554566 0  6 0  C 6.15590200445434 0  6.30066815144766 0.039663461538462  6.43429844097996 0.118990384615385  Z " fill-rule="nonzero" fill="#ff6600" stroke="none" transform="matrix(1 0 0 1 680 510 )" />
  </g>
</svg>