<?xml version="1.0" encoding="utf-8"?>
<svg version="1.1" xmlns:xlink="http://www.w3.org/1999/xlink" width="222px" height="29px" xmlns="http://www.w3.org/2000/svg">
  <defs>
    <mask fill="white" id="clip36">
      <path d="M 0 21.4347826086957  L 0 14.8247694334658  L 0 7.56521739130435  C 0 3.3286956521739  2.81769230769241 0  6.40384615384615 0  L 215.596153846154 0  C 219.182307692308 0  222 3.3286956521739  222 7.56521739130435  L 222 21.4347826086957  C 222 25.6713043478261  219.182307692308 29  215.596153846154 29  L 6.40384615384615 29  C 2.81769230769241 29  0 25.6713043478261  0 21.4347826086957  Z " fill-rule="evenodd" />
    </mask>
  </defs>
  <g transform="matrix(1 0 0 1 -1022 -215 )">
    <path d="M 0 21.4347826086957  L 0 14.8247694334658  L 0 7.56521739130435  C 0 3.3286956521739  2.81769230769241 0  6.40384615384615 0  L 215.596153846154 0  C 219.182307692308 0  222 3.3286956521739  222 7.56521739130435  L 222 21.4347826086957  C 222 25.6713043478261  219.182307692308 29  215.596153846154 29  L 6.40384615384615 29  C 2.81769230769241 29  0 25.6713043478261  0 21.4347826086957  Z " fill-rule="nonzero" fill="#ffffff" stroke="none" transform="matrix(1 0 0 1 1022 215 )" />
    <path d="M 0 21.4347826086957  L 0 14.8247694334658  L 0 7.56521739130435  C 0 3.3286956521739  2.81769230769241 0  6.40384615384615 0  L 215.596153846154 0  C 219.182307692308 0  222 3.3286956521739  222 7.56521739130435  L 222 21.4347826086957  C 222 25.6713043478261  219.182307692308 29  215.596153846154 29  L 6.40384615384615 29  C 2.81769230769241 29  0 25.6713043478261  0 21.4347826086957  Z " stroke-width="2" stroke="#797979" fill="none" transform="matrix(1 0 0 1 1022 215 )" mask="url(#clip36)" />
  </g>
</svg>