<?xml version="1.0" encoding="utf-8"?>
<svg version="1.1" xmlns:xlink="http://www.w3.org/1999/xlink" width="22px" height="16px" xmlns="http://www.w3.org/2000/svg">
  <g transform="matrix(1 0 0 1 -232 -221 )">
    <path d="M 4.02678571428571 12.2727272727273  C 4.48511904761905 12.6969696969697  4.71428571428571 13.2121212121212  4.71428571428571 13.8181818181818  C 4.71428571428571 14.4242424242424  4.48511904761905 14.9393939393939  4.02678571428571 15.3636363636364  C 3.56845238095238 15.7878787878788  3.01190476190476 16  2.35714285714286 16  C 1.70238095238095 16  1.14583333333333 15.7878787878788  0.6875 15.3636363636364  C 0.229166666666667 14.9393939393939  0 14.4242424242424  0 13.8181818181818  C 0 13.2121212121212  0.229166666666667 12.6969696969697  0.6875 12.2727272727273  C 1.14583333333333 11.8484848484848  1.70238095238095 11.6363636363636  2.35714285714286 11.6363636363636  C 3.01190476190476 11.6363636363636  3.56845238095238 11.8484848484848  4.02678571428571 12.2727272727273  Z M 4.02678571428571 6.45454545454546  C 4.48511904761905 6.87878787878788  4.71428571428571 7.39393939393939  4.71428571428571 8  C 4.71428571428571 8.60606060606061  4.48511904761905 9.12121212121212  4.02678571428571 9.54545454545455  C 3.56845238095238 9.96969696969697  3.01190476190476 10.1818181818182  2.35714285714286 10.1818181818182  C 1.70238095238095 10.1818181818182  1.14583333333333 9.96969696969697  0.6875 9.54545454545455  C 0.229166666666667 9.12121212121212  0 8.60606060606061  0 8  C 0 7.39393939393939  0.229166666666667 6.87878787878788  0.6875 6.45454545454546  C 1.14583333333333 6.03030303030303  1.70238095238095 5.81818181818182  2.35714285714286 5.81818181818182  C 3.01190476190476 5.81818181818182  3.56845238095238 6.03030303030303  4.02678571428571 6.45454545454546  Z M 21.8833705357143 12.4715909090909  C 21.9611235119048 12.5435606060606  22 12.6287878787879  22 12.7272727272727  L 22 14.9090909090909  C 22 15.0075757575758  21.9611235119048 15.092803030303  21.8833705357143 15.1647727272727  C 21.8056175595238 15.2367424242424  21.7135416666667 15.2727272727273  21.6071428571429 15  L 6.67857142857143 15  C 6.57217261904762 15.2727272727273  6.48009672619048 15.2367424242424  6.40234375 15.1647727272727  C 6.32459077380952 15.092803030303  6.28571428571429 15.0075757575758  6.28571428571429 14.9090909090909  L 6.28571428571429 12.7272727272727  C 6.28571428571429 12.6287878787879  6.32459077380952 12.5435606060606  6.40234375 12.4715909090909  C 6.48009672619048 12.3996212121212  6.57217261904762 12.3636363636364  6.67857142857143 12.3636363636364  L 21.6071428571429 12.3636363636364  C 21.7135416666667 12.3636363636364  21.8056175595238 12.3996212121212  21.8833705357143 12.4715909090909  Z M 4.02678571428571 0.636363636363637  C 4.48511904761905 1.06060606060606  4.71428571428571 1.57575757575757  4.71428571428571 2.18181818181818  C 4.71428571428571 2.78787878787879  4.48511904761905 3.3030303030303  4.02678571428571 3.72727272727273  C 3.56845238095238 4.15151515151515  3.01190476190476 4.36363636363636  2.35714285714286 4.36363636363636  C 1.70238095238095 4.36363636363636  1.14583333333333 4.15151515151515  0.6875 3.72727272727273  C 0.229166666666667 3.3030303030303  0 2.78787878787879  0 2.18181818181818  C 0 1.57575757575757  0.229166666666667 1.06060606060606  0.6875 0.636363636363637  C 1.14583333333333 0.212121212121211  1.70238095238095 0  2.35714285714286 0  C 3.01190476190476 0  3.56845238095238 0.212121212121211  4.02678571428571 0.636363636363637  Z M 21.8833705357143 6.65340909090909  C 21.9611235119048 6.72537878787879  22 6.81060606060606  22 6.90909090909091  L 22 9.09090909090909  C 22 9.18939393939394  21.9611235119048 9.27462121212121  21.8833705357143 9.34659090909091  C 21.8056175595238 9.41856060606061  21.7135416666667 9.45454545454545  21.6071428571429 9.45454545454545  L 6.67857142857143 9.45454545454545  C 6.57217261904762 9.45454545454545  6.48009672619048 9.41856060606061  6.40234375 9.34659090909091  C 6.32459077380952 9.27462121212121  6.28571428571429 9.18939393939394  6.28571428571429 9.09090909090909  L 6.28571428571429 6.90909090909091  C 6.28571428571429 6.81060606060606  6.32459077380952 6.72537878787879  6.40234375 6.65340909090909  C 6.48009672619048 6.58143939393939  6.57217261904762 6.54545454545455  6.67857142857143 6.54545454545455  L 21.6071428571429 6.54545454545455  C 21.7135416666667 6.54545454545455  21.8056175595238 6.58143939393939  21.8833705357143 6.65340909090909  Z M 21.8833705357143 0.835227272727273  C 21.9611235119048 0.907196969696969  22 0.992424242424242  22 1.09090909090909  L 22 3.27272727272727  C 22 3.37121212121212  21.9611235119048 3.45643939393939  21.8833705357143 3.52840909090909  C 21.8056175595238 3.60037878787879  21.7135416666667 3.63636363636364  21.6071428571429 3.63636363636364  L 6.67857142857143 3.63636363636364  C 6.57217261904762 3.63636363636364  6.48009672619048 3.60037878787879  6.40234375 3.52840909090909  C 6.32459077380952 3.45643939393939  6.28571428571429 3.37121212121212  6.28571428571429 3.27272727272727  L 6.28571428571429 1.09090909090909  C 6.28571428571429 0.992424242424242  6.32459077380952 0.907196969696969  6.40234375 0.835227272727273  C 6.48009672619048 0.763257575757574  6.57217261904762 0.727272727272727  6.67857142857143 1  L 21.6071428571429 1  C 21.7135416666667 0.727272727272727  21.8056175595238 0.763257575757574  21.8833705357143 0.835227272727273  Z " fill-rule="nonzero" fill="#ab1b1b" stroke="none" transform="matrix(1 0 0 1 232 221 )" />
  </g>
</svg>