<?xml version="1.0" encoding="utf-8"?>
<svg version="1.1" xmlns:xlink="http://www.w3.org/1999/xlink" width="131px" height="131px" xmlns="http://www.w3.org/2000/svg">
  <g transform="matrix(1 0 0 1 -160 -287 )">
    <path d="M 40.0602678571429 5.19029017857143  C 48.1502976190476 1.73009672619048  56.6302083333333 0  65.5 0  C 74.3697916666667 0  82.8497023809524 1.73009672619048  90.9397321428572 5.19029017857143  C 99.0297619047619 8.65048363095238  105.998883928571 13.3046875  111.847098214286 19.1529017857143  C 117.6953125 25.0011160714286  122.349516369048 31.9702380952381  125.809709821429 40.0602678571429  C 129.26990327381 48.1502976190476  131 56.6302083333333  131 65.5  C 131 74.3210565476191  129.282087053571 82.7765997023809  125.846261160714 90.8666294642857  C 122.410435267857 98.9566592261905  117.768415178571 105.92578125  111.920200892857 111.773995535714  C 106.071986607143 117.622209821429  99.1028645833333 122.288597470238  91.0128348214286 125.773158482143  C 82.9228050595238 129.257719494048  74.4185267857143 131  65.5 131  C 56.5814732142857 131  48.0771949404762 129.26990327381  39.9871651785714 125.809709821429  C 31.8971354166667 122.349516369048  24.940197172619 117.683128720238  19.1163504464286 111.810546875  C 13.2925037202381 105.937965029762  8.65048363095238 98.9688430059524  5.19029017857143 90.9031808035714  C 1.73009672619048 82.8375186011905  0 74.3697916666667  0 65.5  C 0 56.6302083333333  1.73009672619048 48.1502976190476  5.19029017857143 40.0602678571429  C 8.65048363095238 31.9702380952381  13.3046875 25.0011160714286  19.1529017857143 19.1529017857143  C 25.0011160714286 13.3046875  31.9702380952381 8.65048363095238  40.0602678571429 5.19029017857143  Z M 88.3811383928572 74.8571428571428  C 100.077566964286 74.8571428571428  107.534040178571 82.8253348214286  110.750558035714 98.76171875  C 118.01209077381 88.7710193452381  121.642857142857 77.6837797619048  121.642857142857 65.5  C 121.642857142857 57.8973214285714  120.156436011905 50.6357886904762  117.18359375 43.7154017857143  C 114.210751488095 36.7950148809524  110.214471726191 30.824962797619  105.194754464286 25.8052455357143  C 100.175037202381 20.7855282738095  94.2049851190476 16.7892485119048  87.2845982142857 13.81640625  C 80.3642113095238 10.8435639880952  73.1026785714286 9.35714285714285  65.5 9.35714285714285  C 57.8973214285714 9.35714285714285  50.6357886904762 10.8435639880952  43.7154017857143 13.81640625  C 36.7950148809524 16.7892485119048  30.8249627976191 20.7855282738095  25.8052455357143 25.8052455357143  C 20.7855282738095 30.824962797619  16.7892485119048 36.7950148809524  13.81640625 43.7154017857143  C 10.8435639880952 50.6357886904762  9.35714285714286 57.8973214285714  9.35714285714286 65.5  C 9.35714285714286 77.6837797619048  12.9879092261905 88.7710193452381  20.2494419642857 98.76171875  C 23.4659598214286 82.8253348214286  30.9224330357143 74.8571428571428  42.6188616071429 74.8571428571428  C 49.003162202381 81.0952380952381  56.6302083333333 84.2142857142857  65.5 84.2142857142857  C 74.3697916666667 84.2142857142857  81.9968377976191 81.0952380952381  88.3811383928572 74.8571428571428  Z M 85.3473772321428 71.3116629464286  C 90.830078125 65.8289620535714  93.5714285714286 59.2131696428571  93.5714285714286 51.4642857142857  C 93.5714285714286 43.7154017857143  90.830078125 37.099609375  85.3473772321428 31.6169084821429  C 79.8646763392857 26.1342075892857  73.2488839285714 23.3928571428571  65.5 23.3928571428571  C 57.7511160714286 23.3928571428571  51.1353236607143 26.1342075892857  45.6526227678571 31.6169084821429  C 40.169921875 37.099609375  37.4285714285714 43.7154017857143  37.4285714285714 51.4642857142857  C 37.4285714285714 59.2131696428571  40.169921875 65.8289620535714  45.6526227678571 71.3116629464286  C 51.1353236607143 76.7943638392857  57.7511160714286 79.5357142857143  65.5 79.5357142857143  C 73.2488839285714 79.5357142857143  79.8646763392857 76.7943638392857  85.3473772321428 71.3116629464286  Z " fill-rule="nonzero" fill="#aaaaaa" stroke="none" transform="matrix(1 0 0 1 160 287 )" />
  </g>
</svg>