<?xml version="1.0" encoding="utf-8"?>
<svg version="1.1" xmlns:xlink="http://www.w3.org/1999/xlink" width="88px" height="81px" xmlns="http://www.w3.org/2000/svg">
  <g transform="matrix(1 0 0 1 -693 -402 )">
    <path d="M 49.8062360801782 68.0760216346154  C 50.1165553080921 67.7677283653846  50.271714922049 67.3864182692308  50.271714922049 66.9320913461539  L 50.271714922049 57.6832932692308  C 50.271714922049 57.2289663461538  50.1165553080921 56.84765625  49.8062360801782 56.5393629807692  C 49.4959168522643 56.2310697115385  49.1284335560505 56.0769230769231  48.7037861915368 56.0769230769231  L 39.2962138084633 56.0769230769231  C 38.8715664439495 56.0769230769231  38.5040831477357 56.2310697115385  38.1937639198218 56.5393629807692  C 37.8834446919079 56.84765625  37.728285077951 57.2289663461538  37.728285077951 57.6832932692308  L 37.728285077951 66.9320913461539  C 37.728285077951 67.3864182692308  37.8834446919079 67.7677283653846  38.1937639198218 68.0760216346154  C 38.5040831477357 68.3843149038461  38.8715664439495 68.5384615384615  39.2962138084633 68.5384615384615  L 48.7037861915368 68.5384615384615  C 49.1284335560505 68.5384615384615  49.4959168522643 68.3843149038461  49.8062360801782 68.0760216346154  Z M 49.6592427616926 49.5297475961538  C 49.9695619896065 49.3188100961538  50.1410541945063 49.0510817307692  50.173719376392 48.7265625  L 51.0556792873051 26.3834134615385  C 51.0556792873051 25.9939903846154  50.8923533778768 25.6856971153846  50.56570155902 25.4585336538462  C 50.1410541945063 25.1015625  49.7490720118783 24.9230769230769  49.3897550111359 25  L 38.6102449888641 25  C 38.2509279881218 24.9230769230769  37.8589458054937 25.1015625  37.43429844098 25.4585336538462  C 37.1076466221232 25.6856971153846  36.9443207126949 26.0264423076923  36.9443207126949 26.4807692307692  L 37.7772828507795 48.7265625  C 37.7772828507795 49.0510817307692  37.9406087602079 49.3188100961538  38.2672605790646 49.5297475961538  C 38.5939123979213 49.7406850961538  38.9858945805494 49.8461538461538  39.4432071269488 49.8461538461538  L 48.5077951002227 49.8461538461538  C 48.9651076466221 49.8461538461538  49.3489235337788 49.7406850961538  49.6592427616926 49.5297475961538  Z M 47.184855233853 0.876201923076924  C 48.1648106904232 1.46033653846154  48.9324424647365 2.25540865384615  49.4877505567929 3.26141826923077  L 87.1180400890869 71.7998798076923  C 88.2613214550854 73.8443509615385  88.2286562731997 75.8888221153846  87.0200445434298 77.9332932692308  C 86.4647364513734 78.8743990384615  85.7052709725316 79.6207932692308  84.7416481069042 80.1724759615385  C 83.7780252412769 80.7241586538461  82.7409057164068 81  81.630289532294 81  L 6.36971046770601 81  C 5.25909428359317 81  4.22197475872309 80.7241586538461  3.25835189309577 80.1724759615385  C 2.29472902746845 79.6207932692308  1.53526354862658 78.8743990384615  0.979955456570156 77.9332932692308  C -0.228656273199703 75.8888221153846  -0.261321455085375 73.8443509615385  0.88195991091314 71.7998798076923  L 38.5122494432071 3.26141826923077  C 39.0675575352636 2.25540865384615  39.8351893095768 1.46033653846154  40.815144766147 0.876201923076924  C 41.7951002227172 0.292067307692311  42.8567186340015 0  44 0  C 45.1432813659985 0  46.2048997772828 0.292067307692311  47.184855233853 0.876201923076924  Z " fill-rule="nonzero" fill="#ec6416" stroke="none" transform="matrix(1 0 0 1 693 402 )" />
  </g>
</svg>