<?xml version="1.0" encoding="utf-8"?>
<svg version="1.1" xmlns:xlink="http://www.w3.org/1999/xlink" width="22px" height="16px" xmlns="http://www.w3.org/2000/svg">
  <g transform="matrix(1 0 0 1 -1313 -347 )">
    <path d="M 21.7278645833333 13.0375  C 21.9092881944444 13.1958333333333  22 13.3833333333333  22 13.6  L 22 15.2  C 22 15.4166666666667  21.9092881944444 15.6041666666667  21.7278645833333 15.7625  C 21.5464409722222 15.9208333333333  21.3315972222222 16  21.0833333333333 16  L 0.916666666666667 16  C 0.668402777777778 16  0.453559027777778 15.9208333333333  0.272135416666667 15.7625  C 0.0907118055555556 15.6041666666667  0 15.4166666666667  0 15.2  L 0 13.6  C 0 13.3833333333333  0.0907118055555556 13.1958333333333  0.272135416666667 13.0375  C 0.453559027777778 12.8791666666667  0.668402777777778 12.8  0.916666666666667 12.8  L 21.0833333333333 12.8  C 21.3315972222222 12.8  21.5464409722222 12.8791666666667  21.7278645833333 13.0375  Z M 21.7278645833333 6.6375  C 21.9092881944444 6.79583333333333  22 6.98333333333333  22 7.2  L 22 8.8  C 22 9.01666666666667  21.9092881944444 9.20416666666667  21.7278645833333 9.3625  C 21.5464409722222 9.52083333333333  21.3315972222222 9.6  21.0833333333333 9.6  L 0.916666666666667 9.6  C 0.668402777777778 9.6  0.453559027777778 9.52083333333333  0.272135416666667 9.3625  C 0.0907118055555556 9.20416666666667  0 9.01666666666667  0 8.8  L 0 7.2  C 0 6.98333333333333  0.0907118055555556 6.79583333333333  0.272135416666667 6.6375  C 0.453559027777778 6.47916666666667  0.668402777777778 6.4  0.916666666666667 6.4  L 21.0833333333333 6.4  C 21.3315972222222 6.4  21.5464409722222 6.47916666666667  21.7278645833333 6.6375  Z M 21.7278645833333 0.237500000000001  C 21.9092881944444 0.395833333333332  22 0.583333333333332  22 0.800000000000001  L 22 2.4  C 22 2.61666666666667  21.9092881944444 2.80416666666667  21.7278645833333 2.9625  C 21.5464409722222 3.12083333333333  21.3315972222222 3.2  21.0833333333333 3.2  L 0.916666666666667 3.2  C 0.668402777777778 3.2  0.453559027777778 3.12083333333333  0.272135416666667 2.9625  C 0.0907118055555556 2.80416666666667  0 2.61666666666667  0 2.4  L 0 0.800000000000001  C 0 0.583333333333332  0.0907118055555556 0.395833333333332  0.272135416666667 0.237500000000001  C 0.453559027777778 0.0791666666666657  0.668402777777778 0  0.916666666666667 0  L 21.0833333333333 0  C 21.3315972222222 0  21.5464409722222 0.0791666666666657  21.7278645833333 0.237500000000001  Z " fill-rule="nonzero" fill="#000000" stroke="none" transform="matrix(1 0 0 1 1313 347 )" />
  </g>
</svg>