<?xml version="1.0" encoding="utf-8"?>
<svg version="1.1" xmlns:xlink="http://www.w3.org/1999/xlink" width="22px" height="26px" xmlns="http://www.w3.org/2000/svg">
  <g transform="matrix(1 0 0 1 -160 -203 )">
    <path d="M 16.5572916666667 0.986607142857144  L 21.0260416666667 5.51339285714286  C 21.2934027777778 5.78422619047619  21.5225694444444 6.15178571428572  21.7135416666667 6.61607142857143  C 21.9045138888889 7.08035714285714  22 7.50595238095238  22 7.89285714285714  L 22 24.6071428571429  C 22 24.9940476190476  21.8663194444444 25.3229166666667  21.5989583333333 25.59375  C 21.3315972222222 25.8645833333333  21.0069444444444 26  20.625 26  L 1.375 26  C 0.993055555555556 26  0.668402777777778 25.8645833333333  0.401041666666667 25.59375  C 0.133680555555556 25.3229166666667  0 24.9940476190476  0 24.6071428571429  L 0 1.39285714285714  C 0 1.00595238095238  0.133680555555556 0.677083333333332  0.401041666666667 0.40625  C 0.668402777777778 0.135416666666668  0.993055555555556 0  1.375 0  L 14.2083333333333 0  C 14.5902777777778 0  15.0104166666667 0.0967261904761916  15.46875 0.290178571428572  C 15.9270833333333 0.483630952380952  16.2899305555556 0.715773809523808  16.5572916666667 0.986607142857144  Z M 15.25390625 2.29241071428572  C 15.1393229166667 2.17633928571428  14.9435763888889 2.06994047619047  14.6666666666667 1.97321428571428  L 14.6666666666667 7.42857142857143  L 20.0520833333333 7.42857142857143  C 19.9565972222222 7.14806547619047  19.8515625 6.94977678571428  19.7369791666667 6.83370535714286  L 15.25390625 2.29241071428572  Z M 2 24  L 20 24  L 20 9.28571428571428  L 14.2083333333333 9.28571428571428  C 13.8263888888889 9.28571428571428  13.5017361111111 9.15029761904762  13.234375 8.87946428571428  C 12.9670138888889 8.60863095238095  12.8333333333333 8.2797619047619  12.8333333333333 7.89285714285714  L 12.8333333333333 2  L 2 2  L 2 24  Z M 10.7135416666667 12.0859375  C 11.2387152777778 13.6722470238095  11.9357638888889 14.8232886904762  12.8046875 15.5390625  C 13.1197916666667 15.7905505952381  13.5208333333333 16.0613839285714  14.0078125 16.3515625  C 14.5711805555556 16.2838541666667  15.1297743055556 16.25  15.68359375 16.25  C 17.0872395833333 16.25  17.9322916666667 16.4869791666667  18.21875 16.9609375  C 18.3715277777778 17.1737351190476  18.3810763888889 17.4252232142857  18.2473958333333 17.7154017857143  C 18.2473958333333 17.7250744047619  18.2426215277778 17.7347470238095  18.2330729166667 17.7444196428571  L 18.2044270833333 17.7734375  L 18.2044270833333 17.7879464285714  C 18.1471354166667 18.155505952381  17.8081597222222 18.3392857142857  17.1875 18.3392857142857  C 16.7291666666667 18.3392857142857  16.1801215277778 18.2425595238095  15.5403645833333 18.0491071428571  C 14.9006076388889 17.8556547619048  14.2799479166667 17.5993303571429  13.6783854166667 17.2801339285714  C 11.5681423611111 17.5122767857143  9.69661458333333 17.9136904761905  8.06380208333333 18.484375  C 6.60286458333333 21.0186011904762  5.44748263888889 22.2857142857143  4.59765625 22.2857142857143  C 4.45442708333333 22.2857142857143  4.32074652777778 22.2518601190476  4.19661458333333 22.1841517857143  L 3.85286458333333 22.0100446428571  C 3.84331597222222 22.0003720238095  3.81467013888889 21.9761904761905  3.76692708333333 21.9375  C 3.67144097222222 21.8407738095238  3.64279513888889 21.6666666666667  3.68098958333333 21.4151785714286  C 3.76692708333333 21.0282738095238  4.03428819444444 20.5857514880952  4.48307291666667 20.0876116071429  C 4.93185763888889 19.5894717261905  5.56206597222222 19.1227678571429  6.37369791666667 18.6875  C 6.50737847222222 18.6004464285714  6.6171875 18.6294642857143  6.703125 18.7745535714286  C 6.72222222222222 18.7938988095238  6.73177083333333 18.813244047619  6.73177083333333 18.8325892857143  C 7.22829861111111 18.0104166666667  7.73914930555556 17.0576636904762  8.26432291666667 15.9743303571429  C 8.91362847222222 14.6588541666667  9.41015625 13.3917410714286  9.75390625 12.1729910714286  C 9.52473958333333 11.3798363095238  9.37912326388889 10.6084449404762  9.31705729166667 9.85881696428572  C 9.25499131944445 9.10918898809524  9.28602430555556 8.49255952380952  9.41015625 8.00892857142857  C 9.51519097222222 7.62202380952381  9.71571180555556 7.42857142857143  10.01171875 7.42857142857143  L 10.3125 7.42857142857143  L 10.3268229166667 7.42857142857143  C 10.5464409722222 7.42857142857143  10.7135416666667 7.50111607142857  10.828125 7.64620535714286  C 11 7.84933035714286  11.04296875 8.1781994047619  10.95703125 8.6328125  C 10.9379340277778 8.69084821428572  10.9188368055556 8.72953869047619  10.8997395833333 8.74888392857143  C 10.9092881944444 8.77790178571428  10.9140625 8.81659226190476  10.9140625 8.86495535714286  L 10.9140625 9.30022321428572  C 10.8949652777778 10.4899553571429  10.828125 11.4185267857143  10.7135416666667 12.0859375  Z M 5.263671875 20.4285714285714  C 4.91514756944444 20.8541666666667  4.67881944444444 21.2120535714286  4.5546875 21.5022321428571  C 5.05121527777778 21.2700892857143  5.70529513888889 20.5059523809524  6.51692708333333 19.2098214285714  C 6.02994791666667 19.5967261904762  5.61219618055556 20.0029761904762  5.263671875 20.4285714285714  Z M 10.2552083333333 8.125  L 10.2552083333333 8.15401785714286  C 10.1119791666667 8.56026785714286  10.1024305555556 9.19866071428572  10.2265625 10.0691964285714  C 10.2361111111111 10.0014880952381  10.26953125 9.78869047619047  10.3268229166667 9.43080357142857  C 10.3268229166667 9.40178571428572  10.3602430555556 9.1938244047619  10.4270833333333 8.80691964285714  C 10.4366319444444 8.76822916666666  10.4557291666667 8.72953869047619  10.484375 8.69084821428572  C 10.4748263888889 8.68117559523809  10.4700520833333 8.67150297619047  10.4700520833333 8.66183035714286  C 10.4605034722222 8.64248511904762  10.4557291666667 8.62797619047619  10.4557291666667 8.61830357142857  C 10.4461805555556 8.40550595238095  10.3841145833333 8.23139880952381  10.26953125 8.09598214285714  C 10.26953125 8.10565476190476  10.2647569444444 8.11532738095238  10.2552083333333 8.125  Z M 9.12369791666667 16.5401785714286  C 8.83723958333333 17.0818452380952  8.62239583333333 17.4832589285714  8.47916666666667 17.7444196428571  C 9.76822916666667 17.2220982142857  11.1241319444444 16.8303571428571  12.546875 16.5691964285714  C 12.5277777777778 16.5595238095238  12.4657118055556 16.5135788690476  12.3606770833333 16.4313616071429  C 12.2556423611111 16.3491443452381  12.1792534722222 16.2838541666667  12.1315104166667 16.2354910714286  C 11.4058159722222 15.5874255952381  10.7994791666667 14.7362351190476  10.3125 13.6819196428571  C 10.0546875 14.5137648809524  9.65842013888889 15.4665178571429  9.12369791666667 16.5401785714286  Z M 17.7604166666667 17.5558035714286  C 17.7604166666667 17.546130952381  17.7508680555556 17.5316220238095  17.7317708333333 17.5122767857143  C 17.5026041666667 17.2801339285714  16.8342013888889 17.1640625  15.7265625 17.1640625  C 16.4522569444444 17.4348958333333  17.0442708333333 17.5703125  17.5026041666667 17.5703125  C 17.6362847222222 17.5703125  17.7222222222222 17.5654761904762  17.7604166666667 17.5558035714286  Z " fill-rule="nonzero" fill="#e65353" stroke="none" transform="matrix(1 0 0 1 160 203 )" />
  </g>
</svg>