<?xml version="1.0" encoding="utf-8"?>
<svg version="1.1" xmlns:xlink="http://www.w3.org/1999/xlink" width="19px" height="23px" xmlns="http://www.w3.org/2000/svg">
  <g transform="matrix(1 0 0 1 -1065 -431 )">
    <path d="M 14.2994791666667 0.872767857142858  L 18.1588541666667 4.87723214285714  C 18.3897569444444 5.11681547619047  18.5876736111111 5.44196428571429  18.7526041666667 5.85267857142857  C 18.9175347222222 6.26339285714286  19 6.63988095238095  19 6.98214285714286  L 19 21.7678571428571  C 19 22.110119047619  18.8845486111111 22.4010416666667  18.6536458333333 22.640625  C 18.4227430555556 22.8802083333333  18.1423611111111 23  17.8125 23  L 1.1875 23  C 0.857638888888889 23  0.577256944444445 22.8802083333333  0.346354166666667 22.640625  C 0.115451388888889 22.4010416666667  0 22.110119047619  0 21.7678571428571  L 0 1.23214285714286  C 0 0.889880952380952  0.115451388888889 0.598958333333332  0.346354166666667 0.359375  C 0.577256944444445 0.119791666666668  0.857638888888889 0  1.1875 0  L 12.2708333333333 0  C 12.6006944444444 0  12.9635416666667 0.0855654761904772  13.359375 0.256696428571429  C 13.7552083333333 0.427827380952381  14.0685763888889 0.633184523809523  14.2994791666667 0.872767857142858  Z M 13.173828125 2.02790178571429  C 13.0748697916667 1.92522321428571  12.9058159722222 1.83110119047619  12.6666666666667 1.74553571428571  L 12.6666666666667 6.57142857142857  L 17.3177083333333 6.57142857142857  C 17.2352430555556 6.32328869047619  17.14453125 6.14787946428571  17.0455729166667 6.04520089285714  L 13.173828125 2.02790178571429  Z M 1.58333333333333 21  L 17.4166666666667 21  L 17.4166666666667 8.21428571428571  L 12.2708333333333 8.21428571428571  C 11.9409722222222 8.21428571428571  11.6605902777778 8.09449404761905  11.4296875 7.85491071428571  C 11.1987847222222 7.61532738095238  11.0833333333333 7.32440476190476  11.0833333333333 6.98214285714286  L 11.0833333333333 1.64285714285714  L 1.58333333333333 1.64285714285714  L 1.58333333333333 21  Z M 9.25260416666667 10.69140625  C 9.70616319444445 12.0946800595238  10.3081597222222 13.1129092261905  11.05859375 13.74609375  C 11.3307291666667 13.9685639880952  11.6770833333333 14.2081473214286  12.09765625 14.46484375  C 12.5842013888889 14.4049479166667  13.0666232638889 14.375  13.544921875 14.375  C 14.7571614583333 14.375  15.4869791666667 14.5846354166667  15.734375 15.00390625  C 15.8663194444444 15.192150297619  15.8745659722222 15.4146205357143  15.7591145833333 15.6713169642857  C 15.7591145833333 15.6798735119048  15.7549913194444 15.6884300595238  15.7467447916667 15.6969866071429  L 15.7220052083333 15.72265625  L 15.7220052083333 15.7354910714286  C 15.6725260416667 16.0606398809524  15.3797743055556 16.2232142857143  14.84375 16.2232142857143  C 14.4479166666667 16.2232142857143  13.9737413194444 16.1376488095238  13.4212239583333 15.9665178571429  C 12.8687065972222 15.7953869047619  12.3326822916667 15.5686383928571  11.8131510416667 15.2862723214286  C 9.99066840277778 15.4916294642857  8.37434895833333 15.8467261904762  6.96419270833333 16.3515625  C 5.70247395833333 18.5933779761905  4.70464409722222 19.7142857142857  3.970703125 19.7142857142857  C 3.84700520833333 19.7142857142857  3.73155381944444 19.684337797619  3.62434895833333 19.6244419642857  L 3.32747395833333 19.4704241071429  C 3.31922743055556 19.4618675595238  3.29448784722222 19.4404761904762  3.25325520833333 19.40625  C 3.17078993055556 19.3206845238095  3.14605034722222 19.1666666666667  3.17903645833333 18.9441964285714  C 3.25325520833333 18.6019345238095  3.48415798611111 18.2104724702381  3.87174479166667 17.7698102678571  C 4.25933159722222 17.3291480654762  4.80360243055556 16.9162946428571  5.50455729166667 16.53125  C 5.62000868055556 16.4542410714286  5.71484375 16.4799107142857  5.7890625 16.6082589285714  C 5.80555555555556 16.6253720238095  5.81380208333333 16.6424851190476  5.81380208333333 16.6595982142857  C 6.24262152777778 15.9322916666667  6.68381076388889 15.0894717261905  7.13736979166667 14.1311383928571  C 7.69813368055556 12.9674479166667  8.126953125 11.8465401785714  8.423828125 10.7684151785714  C 8.22591145833333 10.0667782738095  8.10015190972222 9.38439360119047  8.04654947916667 8.72126116071429  C 7.99294704861111 8.05812872023809  8.01974826388889 7.51264880952381  8.126953125 7.08482142857143  C 8.21766493055556 6.74255952380952  8.39084201388889 6.57142857142857  8.646484375 6.57142857142857  L 8.90625 6.57142857142857  L 8.91861979166667 6.57142857142857  C 9.10828993055556 6.57142857142857  9.25260416666667 6.63560267857143  9.3515625 6.76395089285714  C 9.5 6.94363839285714  9.537109375 7.23456101190476  9.462890625 7.63671875  C 9.44639756944444 7.68805803571429  9.42990451388889 7.72228422619047  9.41341145833333 7.73939732142857  C 9.42165798611111 7.76506696428571  9.42578125 7.7992931547619  9.42578125 7.84207589285714  L 9.42578125 8.22712053571429  C 9.40928819444444 9.27957589285714  9.3515625 10.1010044642857  9.25260416666667 10.69140625  Z M 4.5458984375 18.0714285714286  C 4.24490017361111 18.4479166666667  4.04079861111111 18.7645089285714  3.93359375 19.0212053571429  C 4.36241319444444 18.8158482142857  4.92730034722222 18.139880952381  5.62825520833333 16.9933035714286  C 5.20768229166667 17.3355654761905  4.84689670138889 17.6949404761905  4.5458984375 18.0714285714286  Z M 8.85677083333333 7.1875  L 8.85677083333333 7.21316964285714  C 8.73307291666667 7.57254464285714  8.72482638888889 8.13727678571429  8.83203125 8.90736607142857  C 8.84027777777778 8.84747023809524  8.869140625 8.65922619047619  8.91861979166667 8.34263392857143  C 8.91861979166667 8.31696428571429  8.94748263888889 8.13299851190476  9.00520833333333 7.79073660714286  C 9.01345486111111 7.75651041666667  9.02994791666667 7.72228422619047  9.0546875 7.68805803571429  C 9.04644097222222 7.67950148809524  9.04231770833333 7.67094494047619  9.04231770833333 7.66238839285714  C 9.03407118055556 7.64527529761905  9.02994791666667 7.63244047619047  9.02994791666667 7.62388392857143  C 9.02170138888889 7.43563988095238  8.96809895833333 7.28162202380952  8.869140625 7.16183035714286  C 8.869140625 7.1703869047619  8.86501736111111 7.17894345238095  8.85677083333333 7.1875  Z M 7.87955729166667 14.6316964285714  C 7.63216145833333 15.1108630952381  7.44661458333333 15.4659598214286  7.32291666666667 15.6969866071429  C 8.43619791666667 15.2349330357143  9.60720486111111 14.8883928571429  10.8359375 14.6573660714286  C 10.8194444444444 14.6488095238095  10.7658420138889 14.608165922619  10.6751302083333 14.5354352678571  C 10.5844184027778 14.4627046130952  10.5184461805556 14.4049479166667  10.4772135416667 14.3621651785714  C 9.85047743055556 13.7888764880952  9.32682291666667 13.035900297619  8.90625 12.1032366071429  C 8.68359375 12.839099702381  8.34136284722222 13.6819196428571  7.87955729166667 14.6316964285714  Z M 15.3385416666667 15.5301339285714  C 15.3385416666667 15.5215773809524  15.3302951388889 15.5087425595238  15.3138020833333 15.4916294642857  C 15.1158854166667 15.2862723214286  14.5386284722222 15.18359375  13.58203125 15.18359375  C 14.2087673611111 15.4231770833333  14.7200520833333 15.54296875  15.1158854166667 15.54296875  C 15.2313368055556 15.54296875  15.3055555555556 15.5386904761905  15.3385416666667 15.5301339285714  Z " fill-rule="nonzero" fill="#e65353" stroke="none" transform="matrix(1 0 0 1 1065 431 )" />
  </g>
</svg>