<?xml version="1.0" encoding="utf-8"?>
<svg version="1.1" xmlns:xlink="http://www.w3.org/1999/xlink" width="22px" height="23px" xmlns="http://www.w3.org/2000/svg">
  <g transform="matrix(1 0 0 1 -1065 -742 )">
    <path d="M 16.5572916666667 0.872767857142858  L 21.0260416666667 4.87723214285714  C 21.2934027777778 5.11681547619047  21.5225694444444 5.44196428571429  21.7135416666667 5.85267857142857  C 21.9045138888889 6.26339285714286  22 6.63988095238095  22 6.98214285714286  L 22 21.7678571428571  C 22 22.110119047619  21.8663194444444 22.4010416666667  21.5989583333333 22.640625  C 21.3315972222222 22.8802083333333  21.0069444444444 23  20.625 23  L 1.375 23  C 0.993055555555556 23  0.668402777777778 22.8802083333333  0.401041666666667 22.640625  C 0.133680555555556 22.4010416666667  0 22.110119047619  0 21.7678571428571  L 0 1.23214285714286  C 0 0.889880952380952  0.133680555555556 0.598958333333332  0.401041666666667 0.359375  C 0.668402777777778 0.119791666666668  0.993055555555556 0  1.375 0  L 14.2083333333333 0  C 14.5902777777778 0  15.0104166666667 0.0855654761904772  15.46875 0.256696428571429  C 15.9270833333333 0.427827380952381  16.2899305555556 0.633184523809523  16.5572916666667 0.872767857142858  Z M 15.25390625 2.02790178571429  C 15.1393229166667 1.92522321428571  14.9435763888889 1.83110119047619  14.6666666666667 1.74553571428571  L 14.6666666666667 6.57142857142857  L 20.0520833333333 6.57142857142857  C 19.9565972222222 6.32328869047619  19.8515625 6.14787946428571  19.7369791666667 6.04520089285714  L 15.25390625 2.02790178571429  Z M 2 21  L 20 21  L 20 8.21428571428571  L 14.2083333333333 8.21428571428571  C 13.8263888888889 8.21428571428571  13.5017361111111 8.09449404761905  13.234375 7.85491071428571  C 12.9670138888889 7.61532738095238  12.8333333333333 7.32440476190476  12.8333333333333 6.98214285714286  L 12.8333333333333 2  L 2 2  L 2 21  Z M 7.63411458333333 9.85714285714286  L 3.33723958333333 9.85714285714286  L 3.33723958333333 11.23046875  L 4.33984375 11.23046875  L 6.68880208333333 19.7142857142857  L 8.96614583333333 19.7142857142857  L 10.7994791666667 13.4893973214286  C 10.8663194444444 13.3182663690476  10.9140625 13.1214657738095  10.9427083333333 12.8989955357143  C 10.9618055555556 12.7620907738095  10.9713541666667 12.659412202381  10.9713541666667 12.5909598214286  L 11.0286458333333 12.5909598214286  L 11.0716145833333 12.8989955357143  C 11.0811631944444 12.9246651785714  11.0978732638889 13.0102306547619  11.1217447916667 13.1556919642857  C 11.1456163194444 13.3011532738095  11.171875 13.4123883928571  11.2005208333333 13.4893973214286  L 13.0338541666667 19.7142857142857  L 15.3111979166667 19.7142857142857  L 17.66015625 11.23046875  L 18.6627604166667 11.23046875  L 18.6627604166667 9.85714285714286  L 14.3658854166667 9.85714285714286  L 14.3658854166667 11.23046875  L 15.6549479166667 11.23046875  L 14.2369791666667 16.8521205357143  C 14.1892361111111 17.0232514880952  14.1558159722222 17.2200520833333  14.13671875 17.4425223214286  L 14.1080729166667 17.7120535714286  L 14.05078125 17.7120535714286  C 14.05078125 17.6863839285714  14.0483940972222 17.6585751488095  14.0436197916667 17.6286272321429  C 14.0388454861111 17.5986793154762  14.0316840277778 17.564453125  14.0221354166667 17.5259486607143  C 14.0125868055556 17.4874441964286  14.0078125 17.4596354166667  14.0078125 17.4425223214286  C 13.9982638888889 17.3997395833333  13.9791666666667 17.3098958333333  13.9505208333333 17.1729910714286  C 13.921875 17.0360863095238  13.8980034722222 16.9291294642857  13.87890625 16.8521205357143  L 11.81640625 9.85714285714286  L 10.18359375 9.85714285714286  L 8.12109375 16.8521205357143  C 8.10199652777778 16.9291294642857  8.08051215277778 17.033947172619  8.056640625 17.1665736607143  C 8.03276909722222 17.2992001488095  8.01605902777778 17.3911830357143  8.00651041666667 17.4425223214286  L 7.94921875 17.7120535714286  L 7.89192708333333 17.7120535714286  L 7.86328125 17.4425223214286  C 7.84418402777778 17.2200520833333  7.81076388888889 17.0232514880952  7.76302083333333 16.8521205357143  L 6.34505208333333 11.23046875  L 7.63411458333333 11.23046875  L 7.63411458333333 9.85714285714286  Z " fill-rule="nonzero" fill="#779de6" stroke="none" transform="matrix(1 0 0 1 1065 742 )" />
  </g>
</svg>