<?xml version="1.0" encoding="utf-8"?>
<svg version="1.1" xmlns:xlink="http://www.w3.org/1999/xlink" width="16px" height="15px" xmlns="http://www.w3.org/2000/svg">
  <g transform="matrix(1 0 0 1 -567 -949 )">
    <path d="M 15.8396793587174 6.8944099378882  C 15.9465597862391 6.99792960662526  16 7.11697722567288  16 7.25155279503106  C 16 7.38612836438923  15.9465597862391 7.50517598343685  15.8396793587174 7.60869565217391  L 8.3687374749499 14.8447204968944  C 8.26185704742819 14.9482401656315  8.13894455577822 15  8 15  C 7.86105544422178 15  7.73814295257181 14.9482401656315  7.6312625250501 14.8447204968944  L 0.160320641282565 7.60869565217391  C 0.0534402137608552 7.50517598343685  0 7.38612836438923  0 7.25155279503106  C 0 7.11697722567288  0.0534402137608552 6.99792960662526  0.160320641282565 6.8944099378882  L 0.961923847695391 6.11801242236025  C 1.0688042752171 6.01449275362319  1.19171676686707 5.96273291925466  1.33066132264529 5.96273291925466  C 1.46960587842351 5.96273291925466  1.59251837007348 6.01449275362319  1.69939879759519 6.11801242236025  L 8 12.2204968944099  L 14.3006012024048 6.11801242236025  C 14.4074816299265 6.01449275362319  14.5303941215765 5.96273291925466  14.6693386773547 5.96273291925466  C 14.8082832331329 5.96273291925466  14.9311957247829 6.01449275362319  15.0380761523046 6.11801242236025  L 15.8396793587174 6.8944099378882  Z M 15.8396793587174 0.93167701863354  C 15.9465597862391 1.0351966873706  16 1.15424430641822  16 1.2888198757764  C 16 1.42339544513457  15.9465597862391 1.54244306418219  15.8396793587174 1.64596273291925  L 8.3687374749499 8.88198757763975  C 8.26185704742819 8.98550724637681  8.13894455577822 9.03726708074534  8 9.03726708074534  C 7.86105544422178 9.03726708074534  7.73814295257181 8.98550724637681  7.6312625250501 8.88198757763975  L 0.160320641282565 1.64596273291925  C 0.0534402137608552 1.54244306418219  0 1.42339544513457  0 1.2888198757764  C 0 1.15424430641822  0.0534402137608552 1.0351966873706  0.160320641282565 0.93167701863354  L 0.961923847695391 0.15527950310559  C 1.0688042752171 0.0517598343685288  1.19171676686707 0  1.33066132264529 0  C 1.46960587842351 0  1.59251837007348 0.0517598343685288  1.69939879759519 0.15527950310559  L 8 6.25776397515528  L 14.3006012024048 0.15527950310559  C 14.4074816299265 0.0517598343685288  14.5303941215765 0  14.6693386773547 0  C 14.8082832331329 0  14.9311957247829 0.0517598343685288  15.0380761523046 0.15527950310559  L 15.8396793587174 0.93167701863354  Z " fill-rule="nonzero" fill="#1abc9c" stroke="none" transform="matrix(1 0 0 1 567 949 )" />
  </g>
</svg>