<?xml version="1.0" encoding="utf-8"?>
<svg version="1.1" xmlns:xlink="http://www.w3.org/1999/xlink" width="19px" height="17px" xmlns="http://www.w3.org/2000/svg">
  <g transform="matrix(1 0 0 1 -172 -1046 )">
    <path d="M 10.7536191536748 14.2875600961538  C 10.8206198960653 14.2228565705128  10.8541202672606 14.142828525641  10.8541202672606 14.0474759615385  L 10.8541202672606 12.1063701923077  C 10.8541202672606 12.0110176282051  10.8206198960653 11.9309895833333  10.7536191536748 11.8662860576923  C 10.6866184112843 11.8015825320513  10.6072754268745 11.7692307692308  10.5155902004454 11.7692307692308  L 8.48440979955457 11.7692307692308  C 8.39272457312546 11.7692307692308  8.31338158871566 11.8015825320513  8.24638084632517 11.8662860576923  C 8.17938010393467 11.9309895833333  8.14587973273942 12.0110176282051  8.14587973273942 12.1063701923077  L 8.14587973273942 14.0474759615385  C 8.14587973273942 14.142828525641  8.17938010393467 14.2228565705128  8.24638084632517 14.2875600961538  C 8.31338158871566 14.3522636217949  8.39272457312546 14.3846153846154  8.48440979955457 14.3846153846154  L 10.5155902004454 14.3846153846154  C 10.6072754268745 14.3846153846154  10.6866184112843 14.3522636217949  10.7536191536748 14.2875600961538  Z M 10.7218819599109 10.3951322115385  C 10.7888827023014 10.3508613782051  10.8259094283593 10.294671474359  10.8329621380846 10.2265625  L 11.0233853006682 5.53725961538462  C 11.0233853006682 5.45552884615385  10.9881217520416 5.39082532051282  10.9175946547884 5.34314903846154  C 10.8259094283593 5.26822916666667  10.7412769116555 5.23076923076923  10.6636971046771 5.23076923076923  L 8.33630289532294 5.23076923076923  C 8.25872308834447 5.23076923076923  8.17409057164068 5.26822916666667  8.08240534521158 5.34314903846154  C 8.01187824795843 5.39082532051282  7.97661469933185 5.46233974358974  7.97661469933185 5.55769230769231  L 8.15645879732739 10.2265625  C 8.15645879732739 10.294671474359  8.19172234595397 10.3508613782051  8.26224944320713 10.3951322115385  C 8.33277654046028 10.4394030448718  8.41740905716407 10.4615384615385  8.51614699331848 10.4615384615385  L 10.4732739420935 10.4615384615385  C 10.572011878248 10.4615384615385  10.6548812175204 10.4394030448718  10.7218819599109 10.3951322115385  Z M 10.1876391982183 0.183894230769231  C 10.3992204899777 0.306490384615384  10.5649591685226 0.473357371794871  10.684855233853 0.684495192307693  L 18.8095768374165 15.0691105769231  C 19.0564216778025 15.4981971153846  19.0493689680772 15.9272836538462  18.7884187082405 16.3563701923077  C 18.6685226429102 16.5538862179487  18.5045471417966 16.7105368589744  18.2964922048998 16.8263221153846  C 18.088437268003 16.9421073717949  17.8645137342242 17  17.6247216035635 17  L 1.37527839643653 17  C 1.1354862657758 17  0.911562731997031 16.9421073717949  0.703507795100223 16.8263221153846  C 0.495452858203415 16.7105368589744  0.331477357089829 16.5538862179487  0.211581291759465 16.3563701923077  C -0.0493689680772086 15.9272836538462  -0.0564216778025241 15.4981971153846  0.190423162583519 15.0691105769231  L 8.31514476614699 0.684495192307693  C 8.43504083147736 0.473357371794871  8.60077951002227 0.306490384615384  8.81236080178174 0.183894230769231  C 9.0239420935412 0.0612980769230776  9.25315515961396 0  9.5 0  C 9.74684484038604 0  9.9760579064588 0.0612980769230776  10.1876391982183 0.183894230769231  Z " fill-rule="nonzero" fill="#fbfbfb" stroke="none" transform="matrix(1 0 0 1 172 1046 )" />
  </g>
</svg>