<?xml version="1.0" encoding="utf-8"?>
<svg version="1.1" xmlns:xlink="http://www.w3.org/1999/xlink" width="24px" height="17px" xmlns="http://www.w3.org/2000/svg">
  <g transform="matrix(1 0 0 1 -889 -1046 )">
    <path d="M 15.875 9.94886363636364  C 15.9583333333333 9.85227272727273  16 9.75568181818182  16 9.65909090909091  C 16 9.54640151515152  15.9625 9.45383522727273  15.8875 9.38139204545454  C 15.8125 9.30894886363636  15.7166666666667 9.27272727272727  15.6 9.27272727272727  L 12.8 9.27272727272727  L 12.8 5.02272727272727  C 12.8 4.91808712121212  12.7604166666667 4.82753314393939  12.68125 4.75106534090909  C 12.6020833333333 4.67459753787879  12.5083333333333 4.63636363636364  12.4 4.63636363636364  L 10 4.63636363636364  C 9.89166666666667 4.63636363636364  9.79791666666667 4.67459753787879  9.71875 4.75106534090909  C 9.63958333333333 4.82753314393939  9.6 4.91808712121212  9.6 5.02272727272727  L 9.6 9.27272727272727  L 6.8 9.27272727272727  C 6.69166666666667 9.27272727272727  6.59791666666667 9.31096117424242  6.51875 9.38742897727273  C 6.43958333333333 9.46389678030303  6.4 9.55445075757576  6.4 9.65909090909091  C 6.4 9.7717803030303  6.4375 9.86434659090909  6.5125 9.93678977272727  L 10.9125 14.1867897727273  C 10.9875 14.2592329545455  11.0833333333333 14.2954545454545  11.2 14.2954545454545  C 11.3166666666667 14.2954545454545  11.4125 14.2592329545455  11.4875 14.1867897727273  L 15.875 9.94886363636364  Z M 22.95625 9.48401988636364  C 23.6520833333333 10.325165719697  24 11.2850378787879  24 12.3636363636364  C 24 13.6434659090909  23.53125 14.7361505681818  22.59375 15.6416903409091  C 21.65625 16.5472301136364  20.525 17  19.2 17  L 5.6 17  C 4.05833333333333 17  2.73958333333333 16.4707623106061  1.64375 15.4122869318182  C 0.547916666666667 14.3538115530303  0 13.0800189393939  0 11.5909090909091  C 0 10.5445075757576  0.291666666666667 9.57859848484848  0.875 8.69318181818182  C 1.45833333333333 7.80776515151515  2.24166666666667 7.14370265151515  3.225 6.70099431818182  C 3.20833333333333 6.45951704545455  3.2 6.28645833333333  3.2 6.18181818181818  C 3.2 4.47537878787879  3.825 3.01846590909091  5.075 1.81107954545455  C 6.325 0.603693181818182  7.83333333333333 0  9.6 0  C 10.9 0  12.0895833333333 0.350142045454546  13.16875 1.05042613636364  C 14.2479166666667 1.75071022727273  15.0333333333333 2.68039772727273  15.525 3.83948863636364  C 16.1166666666667 3.3404356060606  16.8083333333333 3.09090909090909  17.6 3.09090909090909  C 18.4833333333333 3.09090909090909  19.2375 3.39275568181818  19.8625 3.99644886363636  C 20.4875 4.60014204545455  20.8 5.32859848484848  20.8 6.18181818181818  C 20.8 6.7935606060606  20.6291666666667 7.34895833333333  20.2875 7.84801136363636  C 21.3708333333333 8.09753787878788  22.2604166666667 8.6428740530303  22.95625 9.48401988636364  Z " fill-rule="nonzero" fill="#fdfdfd" stroke="none" transform="matrix(1 0 0 1 889 1046 )" />
  </g>
</svg>