<?xml version="1.0" encoding="utf-8"?>
<svg version="1.1" xmlns:xlink="http://www.w3.org/1999/xlink" width="540px" height="22px" xmlns="http://www.w3.org/2000/svg">
  <g transform="matrix(1 0 0 1 -523 -1120 )">
    <path d="M 537.1875 7.5812743823147  C 539.0625 7.75292587776333  540 7.97225834416992  540 8.23927178153446  L 540 13.7321196358908  C 540 13.9991330732553  539.0625 14.2184655396619  537.1875 14.3901170351105  C 535.3125 14.5617685305592  532.916666666667 14.6475942782835  530 14.6475942782835  L 140 14.6475942782835  L 140 21.0559167750325  C 140 21.4564369310793  138.020833333333 21.7329865626355  134.0625 21.8855656697009  C 130.104166666667 22.0381447767664  126.458333333333 21.9904638058084  123.125 21.742522756827  L 3.125 11.7295188556567  C 1.04166666666667 11.5387949718249  0 11.3194625054183  0 11.0715214564369  C 0 10.8045080190724  1.04166666666667 10.5756393584742  3.125 10.3849154746424  L 123.125 0.257477243172952  C 126.458333333333 -0.00953619419159635  130.104166666667 -0.0667533593411402  134.0625 0.0858257477243183  C 138.020833333333 0.257477243172952  140 0.534026874729085  140 0.915474642392717  L 140 7.32379713914174  L 530 7.32379713914174  C 532.916666666667 7.32379713914174  535.3125 7.40962288686606  537.1875 7.5812743823147  Z " fill-rule="nonzero" fill="#f23232" stroke="none" transform="matrix(1 0 0 1 523 1120 )" />
  </g>
</svg>