<?xml version="1.0" encoding="utf-8"?>
<svg version="1.1" xmlns:xlink="http://www.w3.org/1999/xlink" width="45px" height="45px" xmlns="http://www.w3.org/2000/svg">
  <g transform="matrix(1 0 0 1 -1075 -229 )">
    <path d="M 13.7611607142857 1.78292410714286  C 16.5401785714286 0.594308035714285  19.453125 0  22.5 0  C 25.546875 0  28.4598214285714 0.594308035714285  31.2388392857143 1.78292410714286  C 34.0178571428571 2.97154017857143  36.4118303571429 4.5703125  38.4207589285714 6.57924107142857  C 40.4296875 8.58816964285714  42.0284598214286 10.9821428571429  43.2170758928571 13.7611607142857  C 44.4056919642857 16.5401785714286  45 19.453125  45 22.5  C 45 25.5301339285714  44.4098772321429 28.4347098214286  43.2296316964286 31.2137276785714  C 42.0493861607143 33.9927455357143  40.4547991071429 36.38671875  38.4458705357143 38.3956473214286  C 36.4369419642857 40.4045758928571  34.04296875 42.0075334821429  31.2639508928571 43.2045200892857  C 28.4849330357143 44.4015066964286  25.5636160714286 45  22.5 45  C 19.4363839285714 45  16.5150669642857 44.4056919642857  13.7360491071429 43.2170758928571  C 10.95703125 42.0284598214286  8.56724330357143 40.4255022321429  6.56668526785714 38.408203125  C 4.56612723214286 36.3909040178571  2.97154017857143 33.9969308035714  1.78292410714286 31.2262834821429  C 0.594308035714286 28.4556361607143  0 25.546875  0 22.5  C 0 19.453125  0.594308035714286 16.5401785714286  1.78292410714286 13.7611607142857  C 2.97154017857143 10.9821428571429  4.5703125 8.58816964285714  6.57924107142857 6.57924107142857  C 8.58816964285714 4.5703125  10.9821428571429 2.97154017857143  13.7611607142857 1.78292410714286  Z M 30.3599330357143 25.7142857142857  C 34.3777901785714 25.7142857142857  36.9391741071429 28.4514508928571  38.0440848214286 33.92578125  C 40.5385044642857 30.4938616071429  41.7857142857143 26.6852678571429  41.7857142857143 22.5  C 41.7857142857143 19.8883928571429  41.2751116071429 17.3939732142857  40.25390625 15.0167410714286  C 39.2327008928571 12.6395089285714  37.8599330357143 10.5887276785714  36.1356026785714 8.86439732142857  C 34.4112723214286 7.14006696428571  32.3604910714286 5.76729910714286  29.9832589285714 4.74609375  C 27.6060267857143 3.72488839285714  25.1116071428571 3.21428571428571  22.5 3.21428571428571  C 19.8883928571429 3.21428571428571  17.3939732142857 3.72488839285714  15.0167410714286 4.74609375  C 12.6395089285714 5.76729910714286  10.5887276785714 7.14006696428571  8.86439732142857 8.86439732142857  C 7.14006696428572 10.5887276785714  5.76729910714286 12.6395089285714  4.74609375 15.0167410714286  C 3.72488839285714 17.3939732142857  3.21428571428571 19.8883928571429  3.21428571428571 22.5  C 3.21428571428571 26.6852678571429  4.46149553571429 30.4938616071429  6.95591517857143 33.92578125  C 8.06082589285714 28.4514508928571  10.6222098214286 25.7142857142857  14.6400669642857 25.7142857142857  C 16.8331473214286 27.8571428571429  19.453125 28.9285714285714  22.5 28.9285714285714  C 25.546875 28.9285714285714  28.1668526785714 27.8571428571429  30.3599330357143 25.7142857142857  Z M 29.3178013392857 24.4963727678571  C 31.201171875 22.6130022321429  32.1428571428571 20.3404017857143  32.1428571428571 17.6785714285714  C 32.1428571428571 15.0167410714286  31.201171875 12.744140625  29.3178013392857 10.8607700892857  C 27.4344308035714 8.97739955357143  25.1618303571429 8.03571428571429  22.5 8.03571428571429  C 19.8381696428571 8.03571428571429  17.5655691964286 8.97739955357143  15.6821986607143 10.8607700892857  C 13.798828125 12.744140625  12.8571428571429 15.0167410714286  12.8571428571429 17.6785714285714  C 12.8571428571429 20.3404017857143  13.798828125 22.6130022321429  15.6821986607143 24.4963727678571  C 17.5655691964286 26.3797433035714  19.8381696428571 27.3214285714286  22.5 27.3214285714286  C 25.1618303571429 27.3214285714286  27.4344308035714 26.3797433035714  29.3178013392857 24.4963727678571  Z " fill-rule="nonzero" fill="#818181" stroke="none" transform="matrix(1 0 0 1 1075 229 )" />
  </g>
</svg>