<?xml version="1.0" encoding="utf-8"?>
<svg version="1.1" xmlns:xlink="http://www.w3.org/1999/xlink" width="145px" height="134px" xmlns="http://www.w3.org/2000/svg">
  <g transform="matrix(1 0 0 1 -671 -512 )">
    <path d="M 82.0670935412027 112.619591346154  C 82.578414996288 112.109575320513  82.8340757238307 111.478766025641  82 110.727163461538  L 82 95.4266826923077  C 82.8340757238307 94.6750801282051  82.578414996288 94.0442708333333  82.0670935412027 93.5342548076923  C 81.5557720861173 93.0242387820513  80.9502598366741 92.7692307692308  80.2505567928731 92  L 64.7494432071269 92  C 64.0497401633259 92.7692307692308  63.4442279138827 93.0242387820513  62.9329064587973 93.5342548076923  C 62.4215850037119 94.0442708333333  62.1659242761693 94.6750801282051  63 95.4266826923077  L 63 110.727163461538  C 62.1659242761693 111.478766025641  62.4215850037119 112.109575320513  62.9329064587973 112.619591346154  C 63.4442279138827 113.129607371795  64.0497401633259 113.384615384615  64.7494432071269 113  L 80.2505567928731 113  C 80.9502598366741 113.384615384615  81.5557720861173 113.129607371795  82.0670935412027 112.619591346154  Z M 81.8248886414254 81.9381009615385  C 82.3362100965108 81.5891426282051  82.6187824795843 81.146233974359  82.6726057906459 80.609375  L 84.1258351893096 43.6466346153846  C 84.1258351893096 43.0024038461538  83.8567186340015 42.4923878205128  83.3184855233853 42.1165865384615  C 82.6187824795843 41.5260416666667  81.9729027468449 41.2307692307692  81.380846325167 42  L 63.619153674833 42  C 63.0270972531552 41.2307692307692  62.3812175204157 41.5260416666667  61.6815144766147 42.1165865384615  C 61.1432813659985 42.4923878205128  60.8741648106904 43.0560897435897  60.8741648106904 43.8076923076923  L 62.2466592427617 80.609375  C 62.2466592427617 81.146233974359  62.5157757980698 81.5891426282051  63.054008908686 81.9381009615385  C 63.5922420193022 82.2870592948718  64.2381217520416 82.4615384615385  64.9916481069042 82  L 79.9276169265033 82  C 80.681143281366 82.4615384615385  81.31356718634 82.2870592948718  81.8248886414254 81.9381009615385  Z M 77.7477728285078 1.44951923076923  C 79.3624721603564 2.41586538461538  80.6273199703044 3.73116987179486  81.5423162583519 5.3954326923077  L 143.546770601336 118.780048076923  C 145.430586488493 122.162259615385  145.376763177431 125.544471153846  143.385300668151 128.926682692308  C 142.470304380104 130.483573717949  141.218912397921 131.718349358974  139.631124721604 132.631009615385  C 138.043337045286 133.543669871795  136.334446919079 134  134.504454342984 134  L 10.4955456570156 134  C 8.66555308092057 134  6.95666295471418 133.543669871795  5.36887527839644 132.631009615385  C 3.78108760207869 131.718349358974  2.52969561989607 130.483573717949  1.61469933184855 128.926682692308  C -0.376763177431329 125.544471153846  -0.430586488492947 122.162259615385  1.4532293986637 118.780048076923  L 63.4576837416481 5.3954326923077  C 64.3726800296956 3.73116987179486  65.6375278396437 2.41586538461538  67.2522271714922 1.44951923076923  C 68.8669265033408 0.483173076923083  70.6161841128434 0  72.5 0  C 74.3838158871566 0  76.1330734966592 0.483173076923083  77.7477728285078 1.44951923076923  Z " fill-rule="nonzero" fill="#ec6416" stroke="none" transform="matrix(1 0 0 1 671 512 )" />
  </g>
</svg>