<?xml version="1.0" encoding="utf-8"?>
<svg version="1.1" xmlns:xlink="http://www.w3.org/1999/xlink" width="73px" height="19px" xmlns="http://www.w3.org/2000/svg">
  <defs>
    <mask fill="white" id="clip35">
      <path d="M 9.9223300970874 9.5  C 9.97118483130907 4.24114163560969  0.354368932038835 0.0778688524590182  0.354368932038835 0.0778688524590182  L 62.7233009708738 0.0778688524590182  C 62.7233009708738 0.0778688524590182  72.3402116393199 4.24135492086883  72.2912621359223 9.5  C 72.2427956589296 14.7067535531546  62.7233009708738 18.7663934426229  62.7233009708738 18.7663934426229  L 0.354368932038835 18.7663934426229  C 0.354368932038835 18.7663934426229  9.87396139096008 14.7065409595347  9.9223300970874 9.5  Z " fill-rule="evenodd" />
    </mask>
  </defs>
  <g transform="matrix(1 0 0 1 -1070 -394 )">
    <path d="M 9.9223300970874 9.5  C 9.97118483130907 4.24114163560969  0.354368932038835 0.0778688524590182  0.354368932038835 0.0778688524590182  L 62.7233009708738 0.0778688524590182  C 62.7233009708738 0.0778688524590182  72.3402116393199 4.24135492086883  72.2912621359223 9.5  C 72.2427956589296 14.7067535531546  62.7233009708738 18.7663934426229  62.7233009708738 18.7663934426229  L 0.354368932038835 18.7663934426229  C 0.354368932038835 18.7663934426229  9.87396139096008 14.7065409595347  9.9223300970874 9.5  Z " fill-rule="nonzero" fill="#ffffff" stroke="none" transform="matrix(1 0 0 1 1070 394 )" />
    <path d="M 9.9223300970874 9.5  C 9.97118483130907 4.24114163560969  0.354368932038835 0.0778688524590182  0.354368932038835 0.0778688524590182  L 62.7233009708738 0.0778688524590182  C 62.7233009708738 0.0778688524590182  72.3402116393199 4.24135492086883  72.2912621359223 9.5  C 72.2427956589296 14.7067535531546  62.7233009708738 18.7663934426229  62.7233009708738 18.7663934426229  L 0.354368932038835 18.7663934426229  C 0.354368932038835 18.7663934426229  9.87396139096008 14.7065409595347  9.9223300970874 9.5  Z " stroke-width="2" stroke="#797979" fill="none" transform="matrix(1 0 0 1 1070 394 )" mask="url(#clip35)" />
  </g>
</svg>