<?xml version="1.0" encoding="utf-8"?>
<svg version="1.1" xmlns:xlink="http://www.w3.org/1999/xlink" width="15px" height="7px" xmlns="http://www.w3.org/2000/svg">
  <g transform="matrix(1 0 0 1 -1312 -172 )">
    <path d="M 14.8496993987976 0.721649484536082  C 14.9498997995992 0.801832760595645  15 0.894043528064146  15 0.998281786941581  C 15 1.10252004581901  14.9498997995992 1.19473081328751  14.8496993987976 1.27491408934708  L 7.84569138276553 6.87972508591065  C 7.74549098196393 6.95990836197022  7.63026052104208 7  7.5 7  C 7.36973947895792 7  7.25450901803607 6.95990836197022  7.15430861723447 6.87972508591065  L 0.150300601202405 1.27491408934708  C 0.0501002004008018 1.19473081328751  0 1.10252004581901  0 0.998281786941581  C 0 0.894043528064146  0.0501002004008018 0.801832760595645  0.150300601202405 0.721649484536082  L 0.901803607214429 0.120274914089347  C 1.00200400801603 0.0400916380297814  1.11723446893788 0  1.24749498997996 0  C 1.37775551102204 0  1.49298597194389 0.0400916380297814  1.59318637274549 0.120274914089347  L 7.5 4.84707903780069  L 13.4068136272545 0.120274914089347  C 13.5070140280561 0.0400916380297814  13.622244488978 0  13.75250501002 0  C 13.8827655310621 0  13.997995991984 0.0400916380297814  14.0981963927856 0.120274914089347  L 14.8496993987976 0.721649484536082  Z " fill-rule="nonzero" fill="#000000" stroke="none" transform="matrix(1 0 0 1 1312 172 )" />
  </g>
</svg>