<?xml version="1.0" encoding="utf-8"?>
<svg version="1.1" xmlns:xlink="http://www.w3.org/1999/xlink" width="70px" height="72px" xmlns="http://www.w3.org/2000/svg">
  <g transform="matrix(1 0 0 1 -755 -55 )">
    <path d="M 12.7272727272727 52.3636363636364  L 19.0909090909091 52.3636363636364  L 19.0909090909091 58.9090909090909  L 12.7272727272727 58.9090909090909  L 12.7272727272727 52.3636363636364  Z M 12.7272727272727 13.0909090909091  L 19.0909090909091 13.0909090909091  L 19.0909090909091 19.6363636363636  L 12.7272727272727 19.6363636363636  L 12.7272727272727 13.0909090909091  Z M 50.9090909090909 13.0909090909091  L 57.2727272727273 13.0909090909091  L 57.2727272727273 19.6363636363636  L 50.9090909090909 19.6363636363636  L 50.9090909090909 13.0909090909091  Z M 7 45  L 7 65  L 26 65  L 26 45  L 7 45  Z M 7 7  L 7 27  L 26 27  L 26 7  L 7 7  Z M 44 7  L 44 27  L 63 27  L 63 7  L 44 7  Z M 0 39  L 32 39  L 32 72  L 0 72  L 0 39  Z M 50.9090909090909 65.4545454545455  L 57.2727272727273 65.4545454545455  L 57.2727272727273 72  L 50.9090909090909 72  L 50.9090909090909 65.4545454545455  Z M 63.6363636363636 65.4545454545455  L 70 65.4545454545455  L 70 72  L 63.6363636363636 72  L 63.6363636363636 65.4545454545455  Z M 63.6363636363636 39.2727272727273  L 70 39.2727272727273  L 70 59  L 50.9090909090909 59  L 50.9090909090909 52.3636363636364  L 44 52.3636363636364  L 44 72  L 38 72  L 38 39  L 57.2727272727273 39  L 57.2727272727273 45.8181818181818  L 63.6363636363636 45.8181818181818  L 63.6363636363636 39.2727272727273  Z M 0 0  L 32 0  L 32 33  L 0 33  L 0 0  Z M 38 0  L 70 0  L 70 33  L 38 33  L 38 0  Z " fill-rule="nonzero" fill="#000000" stroke="none" transform="matrix(1 0 0 1 755 55 )" />
  </g>
</svg>