<?xml version="1.0" encoding="utf-8"?>
<svg version="1.1" xmlns:xlink="http://www.w3.org/1999/xlink" width="74px" height="72px" xmlns="http://www.w3.org/2000/svg">
  <g transform="matrix(1 0 0 1 -609 -55 )">
    <path d="M 13.4545454545455 52.3636363636364  L 20.1818181818182 52.3636363636364  L 20.1818181818182 58.9090909090909  L 13.4545454545455 58.9090909090909  L 13.4545454545455 52.3636363636364  Z M 13.4545454545455 13.0909090909091  L 20.1818181818182 13.0909090909091  L 20.1818181818182 19.6363636363636  L 13.4545454545455 19.6363636363636  L 13.4545454545455 13.0909090909091  Z M 53.8181818181818 13.0909090909091  L 60.5454545454545 13.0909090909091  L 60.5454545454545 19.6363636363636  L 53.8181818181818 19.6363636363636  L 53.8181818181818 13.0909090909091  Z M 7 45  L 7 65  L 27 65  L 27 45  L 7 45  Z M 7 7  L 7 27  L 27 27  L 27 7  L 7 7  Z M 47 7  L 47 27  L 67 27  L 67 7  L 47 7  Z M 0 39  L 34 39  L 34 72  L 0 72  L 0 39  Z M 53.8181818181818 65.4545454545455  L 60.5454545454545 65.4545454545455  L 60.5454545454545 72  L 53.8181818181818 72  L 53.8181818181818 65.4545454545455  Z M 67.2727272727273 65.4545454545455  L 74 65.4545454545455  L 74 72  L 67.2727272727273 72  L 67.2727272727273 65.4545454545455  Z M 67.2727272727273 39.2727272727273  L 74 39.2727272727273  L 74 59  L 53.8181818181818 59  L 53.8181818181818 52.3636363636364  L 47 52.3636363636364  L 47 72  L 40 72  L 40 39  L 60.5454545454545 39  L 60.5454545454545 45.8181818181818  L 67.2727272727273 45.8181818181818  L 67.2727272727273 39.2727272727273  Z M 0 0  L 34 0  L 34 33  L 0 33  L 0 0  Z M 40 0  L 74 0  L 74 33  L 40 33  L 40 0  Z " fill-rule="nonzero" fill="#000000" stroke="none" transform="matrix(1 0 0 1 609 55 )" />
  </g>
</svg>