<?xml version="1.0" encoding="utf-8"?>
<svg version="1.1" xmlns:xlink="http://www.w3.org/1999/xlink" width="140px" height="107px" xmlns="http://www.w3.org/2000/svg">
  <g transform="matrix(1 0 0 1 -195 -321 )">
    <path d="M 195 321  L 335 321  L 335 428  L 195 428  L 195 321  " fill-rule="nonzero" fill="#cccccc" stroke="none" />
    <path d="M 202 328  L 328 328  L 328 421  L 202 421  L 202 328  " fill-rule="nonzero" fill="#ffffff" stroke="none" />
    <path d="M 275.825 353.1  C 271.331 353.1  267.8 349.569  267.8 345.075  C 267.8 340.581  271.331 337.05  275.825 337.05  C 280.319 337.05  283.85 340.581  283.85 345.075  C 283.85 349.569  280.319 353.1  275.825 353.1  " fill-rule="nonzero" fill="#cccccc" stroke="none" />
    <path d="M 205 419  L 205 370.6  L 235.25 348.6  L 277.6 378.645714285714  L 301.8 361.8  L 326 378.645714285714  L 326 419  L 205 419  " fill-rule="nonzero" fill="#169bd5" stroke="none" />
  </g>
</svg>