<?xml version="1.0" encoding="utf-8"?>
<svg version="1.1" xmlns:xlink="http://www.w3.org/1999/xlink" width="46px" height="36px" xmlns="http://www.w3.org/2000/svg">
  <g transform="matrix(1 0 0 1 -1117 -126 )">
    <path d="M 13.9916666666667 7.3125  C 14.8861111111111 8.1875  15.3333333333333 9.24999999999999  15.3333333333333 10.5  C 15.3333333333333 11.75  14.8861111111111 12.8125  13.9916666666667 13.6875  C 13.0972222222222 14.5625  12.0111111111111 15  10.7333333333333 15  C 9.45555555555556 15  8.36944444444445 14.5625  7.475 13.6875  C 6.58055555555556 12.8125  6.13333333333333 11.75  6.13333333333333 10.5  C 6.13333333333333 9.24999999999999  6.58055555555556 8.1875  7.475 7.3125  C 8.36944444444445 6.43749999999999  9.45555555555556 6  10.7333333333333 6  C 12.0111111111111 6  13.0972222222222 6.43749999999999  13.9916666666667 7.3125  Z M 29.9 9.75  L 39 19.5  L 39 30  L 6.13333333333333 30  L 6.13333333333333 25.5  L 13.8 18  L 17.6333333333333 21.75  L 29.9 9.75  Z M 42.7057291666667 3.22265625  C 42.5539930555556 3.07421875  42.3743055555556 3  42.1666666666667 3  L 3.83333333333333 3  C 3.62569444444445 3  3.44600694444445 3.07421875  3.29427083333333 3.22265625  C 3.14253472222222 3.37109375  3.06666666666667 3.546875  3 3.75  L 3 32.25  C 3.06666666666667 32.453125  3.14253472222222 32.62890625  3.29427083333333 32.77734375  C 3.44600694444445 32.92578125  3.62569444444445 33  3.83333333333333 33  L 42.1666666666667 33  C 42.3743055555556 33  42.5539930555556 32.92578125  42.7057291666667 32.77734375  C 42.8574652777778 32.62890625  42.9333333333333 32.453125  43 32.25  L 43 3.75  C 42.9333333333333 3.546875  42.8574652777778 3.37109375  42.7057291666667 3.22265625  Z M 44.8739583333333 1.1015625  C 45.6246527777778 1.8359375  46 2.71875  46 3.75  L 46 32.25  C 46 33.28125  45.6246527777778 34.1640625  44.8739583333333 34.8984375  C 44.1232638888889 35.6328125  43.2208333333333 36  42.1666666666667 36  L 3.83333333333333 36  C 2.77916666666667 36  1.87673611111111 35.6328125  1.12604166666667 34.8984375  C 0.375347222222222 34.1640625  0 33.28125  0 32.25  L 0 3.75  C 0 2.71875  0.375347222222222 1.8359375  1.12604166666667 1.1015625  C 1.87673611111111 0.367187499999996  2.77916666666667 0  3.83333333333333 0  L 42.1666666666667 0  C 43.2208333333333 0  44.1232638888889 0.367187499999996  44.8739583333333 1.1015625  Z " fill-rule="nonzero" fill="#a4a4a4" stroke="none" transform="matrix(1 0 0 1 1117 126 )" />
  </g>
</svg>