<?xml version="1.0" encoding="utf-8"?>
<svg version="1.1" xmlns:xlink="http://www.w3.org/1999/xlink" width="45px" height="36px" xmlns="http://www.w3.org/2000/svg">
  <g transform="matrix(1 0 0 1 -1282 -126 )">
    <path d="M 12.1540178571429 26.8977272727273  C 12.6227678571429 27.375  12.8571428571429 27.9545454545455  12.8571428571429 28.6363636363636  L 12.8571428571429 33.5454545454545  C 12.8571428571429 34.2272727272727  12.6227678571429 34.8068181818182  12.1540178571429 35.2840909090909  C 11.6852678571429 35.7613636363636  11.1160714285714 36  10.4464285714286 36  L 2.41071428571429 36  C 1.74107142857143 36  1.171875 35.7613636363636  0.703125 35.2840909090909  C 0.234375 34.8068181818182  0 34.2272727272727  0 33.5454545454545  L 0 28.6363636363636  C 0 27.9545454545455  0.234375 27.375  0.703125 26.8977272727273  C 1.171875 26.4204545454546  1.74107142857143 26.1818181818182  2.41071428571429 26.1818181818182  L 10.4464285714286 26.1818181818182  C 11.1160714285714 26.1818181818182  11.6852678571429 26.4204545454546  12.1540178571429 26.8977272727273  Z M 12.1540178571429 13.8068181818182  C 12.6227678571429 14.2840909090909  12.8571428571429 14.8636363636364  12.8571428571429 15.5454545454545  L 12.8571428571429 20.4545454545455  C 12.8571428571429 21.1363636363636  12.6227678571429 21.7159090909091  12.1540178571429 22.1931818181818  C 11.6852678571429 22.6704545454545  11.1160714285714 22.9090909090909  10.4464285714286 22.9090909090909  L 2.41071428571429 22.9090909090909  C 1.74107142857143 22.9090909090909  1.171875 22.6704545454545  0.703125 22.1931818181818  C 0.234375 21.7159090909091  0 21.1363636363636  0 20.4545454545455  L 0 15.5454545454545  C 0 14.8636363636364  0.234375 14.2840909090909  0.703125 13.8068181818182  C 1.171875 13.3295454545455  1.74107142857143 13.0909090909091  2.41071428571429 13.0909090909091  L 10.4464285714286 13.0909090909091  C 11.1160714285714 13.0909090909091  11.6852678571429 13.3295454545455  12.1540178571429 13.8068181818182  Z M 44.296875 26.8977272727273  C 44.765625 27.375  45 27.9545454545455  45 28.6363636363636  L 45 33.5454545454545  C 45 34.2272727272727  44.765625 34.8068181818182  44.296875 35.2840909090909  C 43.828125 35.7613636363636  43.2589285714286 36  42.5892857142857 36  L 18.4821428571429 36  C 17.8125 36  17.2433035714286 35.7613636363636  16.7745535714286 35.2840909090909  C 16.3058035714286 34.8068181818182  16.0714285714286 34.2272727272727  16.0714285714286 33.5454545454545  L 16.0714285714286 28.6363636363636  C 16.0714285714286 27.9545454545455  16.3058035714286 27.375  16.7745535714286 26.8977272727273  C 17.2433035714286 26.4204545454546  17.8125 26.1818181818182  18.4821428571429 26  L 42.5892857142857 26  C 43.2589285714286 26.1818181818182  43.828125 26.4204545454546  44.296875 26.8977272727273  Z M 12.1540178571429 0.715909090909091  C 12.6227678571429 1.19318181818182  12.8571428571429 1.77272727272727  12.8571428571429 2.45454545454546  L 12.8571428571429 7.36363636363637  C 12.8571428571429 8.04545454545454  12.6227678571429 8.625  12.1540178571429 9.10227272727273  C 11.6852678571429 9.57954545454545  11.1160714285714 9.81818181818182  10.4464285714286 9.81818181818182  L 2.41071428571429 9.81818181818182  C 1.74107142857143 9.81818181818182  1.171875 9.57954545454545  0.703125 9.10227272727273  C 0.234375 8.625  0 8.04545454545454  0 7.36363636363637  L 0 2.45454545454546  C 0 1.77272727272727  0.234375 1.19318181818182  0.703125 0.715909090909091  C 1.171875 0.238636363636362  1.74107142857143 0  2.41071428571429 0  L 10.4464285714286 0  C 11.1160714285714 0  11.6852678571429 0.238636363636362  12.1540178571429 0.715909090909091  Z M 44.296875 13.8068181818182  C 44.765625 14.2840909090909  45 14.8636363636364  45 15.5454545454545  L 45 20.4545454545455  C 45 21.1363636363636  44.765625 21.7159090909091  44.296875 22.1931818181818  C 43.828125 22.6704545454545  43.2589285714286 22.9090909090909  42.5892857142857 23  L 18.4821428571429 23  C 17.8125 22.9090909090909  17.2433035714286 22.6704545454545  16.7745535714286 22.1931818181818  C 16.3058035714286 21.7159090909091  16.0714285714286 21.1363636363636  16.0714285714286 20.4545454545455  L 16.0714285714286 15.5454545454545  C 16.0714285714286 14.8636363636364  16.3058035714286 14.2840909090909  16.7745535714286 13.8068181818182  C 17.2433035714286 13.3295454545455  17.8125 13.0909090909091  18.4821428571429 13  L 42.5892857142857 13  C 43.2589285714286 13.0909090909091  43.828125 13.3295454545455  44.296875 13.8068181818182  Z M 44.296875 0.715909090909091  C 44.765625 1.19318181818182  45 1.77272727272727  45 2.45454545454546  L 45 7.36363636363637  C 45 8.04545454545454  44.765625 8.625  44.296875 9.10227272727273  C 43.828125 9.57954545454545  43.2589285714286 9.81818181818182  42.5892857142857 10  L 18.4821428571429 10  C 17.8125 9.81818181818182  17.2433035714286 9.57954545454545  16.7745535714286 9.10227272727273  C 16.3058035714286 8.625  16.0714285714286 8.04545454545454  16.0714285714286 7.36363636363637  L 16.0714285714286 2.45454545454546  C 16.0714285714286 1.77272727272727  16.3058035714286 1.19318181818182  16.7745535714286 0.715909090909091  C 17.2433035714286 0.238636363636362  17.8125 0  18.4821428571429 0  L 42.5892857142857 0  C 43.2589285714286 0  43.828125 0.238636363636362  44.296875 0.715909090909091  Z " fill-rule="nonzero" fill="#a4a4a4" stroke="none" transform="matrix(1 0 0 1 1282 126 )" />
  </g>
</svg>