<?xml version="1.0" encoding="utf-8"?>
<svg version="1.1" xmlns:xlink="http://www.w3.org/1999/xlink" width="15px" height="15px" xmlns="http://www.w3.org/2000/svg">
  <g transform="matrix(1 0 0 1 -175 -563 )">
    <path d="M 14.1545758928571 4.52556818181818  C 14.7181919642857 5.55965909090909  15 6.66761363636364  15 7.84943181818182  C 15 8.16761363636363  14.98046875 8.46306818181818  14.94140625 8.73579545454546  L 5.30691964285714 8.73579545454546  C 5.30691964285714 9.56534090909091  5.61244419642857 10.2599431818182  6.22349330357143 10.8196022727273  C 6.83454241071429 11.3792613636364  7.55301339285714 11.6590909090909  8.37890625 11.6590909090909  C 8.93136160714286 11.6590909090909  9.44893973214286 11.5269886363636  9.931640625 11.2627840909091  C 10.4143415178571 10.9985795454545  10.7952008928571 10.6278409090909  11.07421875 10.1505681818182  L 14.6149553571429 10.1505681818182  C 14.3024553571429 11.0539772727273  13.8267299107143 11.8522727272727  13.1877790178571 12.5454545454545  C 12.548828125 13.2386363636364  11.8024553571429 13.7741477272727  10.9486607142857 14.1519886363636  C 10.0948660714286 14.5298295454545  9.19921875 14.71875  8.26171875 14.71875  C 7.21819196428571 14.71875  6.22488839285714 14.4829545454545  5.28180803571429 14.0113636363636  C 4.00948660714286 14.6704545454545  2.91015625 15  1.98381696428571 15  C 0.661272321428572 15  0 14.2528409090909  0 12.7585227272727  C 0 12.1051136363636  0.125558035714286 11.3238636363636  0.376674107142857 10.4147727272727  C 0.471540178571429 10.0738636363636  0.775669642857143 9.42329545454545  1.2890625 8.46306818181818  C 2.39955357142857 6.41761363636364  3.72488839285714 4.69602272727273  5.26506696428571 3.29829545454545  C 4.23828125 3.74715909090909  3.046875 4.75284090909091  1.69084821428571 6.31534090909091  C 2.04241071428571 4.75852272727273  2.83342633928571 3.48153409090909  4.06389508928571 2.484375  C 5.29436383928571 1.48721590909091  6.69363839285714 0.988636363636364  8.26171875 0.988636363636364  C 8.42912946428572 0.988636363636364  8.5546875 0.991477272727272  8.63839285714286 0.997159090909092  C 10.0613839285714 0.332386363636364  11.26953125 0  12.2628348214286 0  C 12.6199776785714 0  12.9436383928571 0.0369318181818179  13.2338169642857 0.110795454545455  C 13.5239955357143 0.184659090909089  13.7876674107143 0.299715909090908  14.0248325892857 0.455965909090909  C 14.2619977678571 0.612215909090909  14.4475446428571 0.829545454545454  14.5814732142857 1.10795454545455  C 14.7154017857143 1.38636363636363  14.7823660714286 1.71306818181818  14.7823660714286 2.08806818181818  C 14.7823660714286 2.74715909090909  14.5731026785714 3.55965909090909  14.1545758928571 4.52556818181818  Z M 13.9871651785714 4.23579545454545  C 14.2717633928571 3.46875  14.4140625 2.85511363636364  14.4140625 2.39488636363636  C 14.4140625 1.92329545454545  14.2661830357143 1.54829545454545  13.9704241071429 1.26988636363636  C 13.6746651785714 0.991477272727272  13.2924107142857 0.852272727272727  12.8236607142857 0.852272727272727  C 12.2209821428571 0.852272727272727  11.5122767857143 1.05113636363636  10.6975446428571 1.44886363636364  C 11.3727678571429 1.71590909090909  11.9935825892857 2.08948863636363  12.5599888392857 2.56960227272727  C 13.1263950892857 3.04971590909091  13.6021205357143 3.60511363636364  13.9871651785714 4.23579545454545  Z M 1.89174107142857 10.1079545454545  C 1.34486607142857 11.2727272727273  1.07142857142857 12.2159090909091  1.07142857142857 12.9375  C 1.07142857142857 13.4261363636364  1.20675223214286 13.8025568181818  1.47739955357143 14.0667613636364  C 1.748046875 14.3309659090909  2.12332589285714 14.4630681818182  2.60323660714286 14.4630681818182  C 3.24497767857143 14.4630681818182  3.98716517857143 14.2272727272727  4.82979910714286 13.7556818181818  C 4.14899553571429 13.3465909090909  3.55329241071429 12.8267045454545  3.04268973214286 12.1960227272727  C 2.53208705357143 11.5653409090909  2.1484375 10.8693181818182  1.89174107142857 10.1079545454545  Z M 6.23186383928571 4.84090909090909  C 5.63197544642857 5.38068181818182  5.31808035714286 6.05397727272727  5.29017857142857 6.86079545454546  L 11.3839285714286 6.86079545454546  C 11.3560267857143 6.05397727272727  11.0407366071429 5.38068181818182  10.4380580357143 4.84090909090909  C 9.83537946428572 4.30113636363636  9.13504464285714 4.03125  8.33705357142857 4.03125  C 7.53348214285714 4.03125  6.83175223214286 4.30113636363636  6.23186383928571 4.84090909090909  Z " fill-rule="nonzero" fill="#169bd5" stroke="none" transform="matrix(1 0 0 1 175 563 )" />
  </g>
</svg>