<?xml version="1.0" encoding="utf-8"?>
<svg version="1.1" xmlns:xlink="http://www.w3.org/1999/xlink" width="222px" height="29px" xmlns="http://www.w3.org/2000/svg">
  <defs>
    <mask fill="white" id="clip38">
      <path d="M 0 21.4347826086956  L 0 14.8247694334657  L 0 7.56521739130437  C 0 3.32869565217391  2.81769230769237 0  6.40384615384619 0  L 38.9508196721288 0  L 215.596153846154 0  C 219.182307692308 0  222 3.32869565217391  222 7.56521739130437  L 222 21.4347826086956  C 222 25.6713043478261  219.182307692308 29  215.596153846154 29  L 6.40384615384619 29  C 2.81769230769237 29  0 25.6713043478261  0 21.4347826086956  Z " fill-rule="evenodd" />
    </mask>
  </defs>
  <g transform="matrix(1 0 0 1 -1044 -286 )">
    <path d="M 0 21.4347826086956  L 0 14.8247694334657  L 0 7.56521739130437  C 0 3.32869565217391  2.81769230769237 0  6.40384615384619 0  L 38.9508196721288 0  L 215.596153846154 0  C 219.182307692308 0  222 3.32869565217391  222 7.56521739130437  L 222 21.4347826086956  C 222 25.6713043478261  219.182307692308 29  215.596153846154 29  L 6.40384615384619 29  C 2.81769230769237 29  0 25.6713043478261  0 21.4347826086956  Z " fill-rule="nonzero" fill="#ffffff" stroke="none" transform="matrix(1 0 0 1 1044 286 )" />
    <path d="M 0 21.4347826086956  L 0 14.8247694334657  L 0 7.56521739130437  C 0 3.32869565217391  2.81769230769237 0  6.40384615384619 0  L 38.9508196721288 0  L 215.596153846154 0  C 219.182307692308 0  222 3.32869565217391  222 7.56521739130437  L 222 21.4347826086956  C 222 25.6713043478261  219.182307692308 29  215.596153846154 29  L 6.40384615384619 29  C 2.81769230769237 29  0 25.6713043478261  0 21.4347826086956  Z " stroke-width="2" stroke="#797979" fill="none" transform="matrix(1 0 0 1 1044 286 )" mask="url(#clip38)" />
  </g>
</svg>