<?xml version="1.0" encoding="utf-8"?>
<svg version="1.1" xmlns:xlink="http://www.w3.org/1999/xlink" width="119px" height="110px" xmlns="http://www.w3.org/2000/svg">
  <g transform="matrix(1 0 0 1 -673 -530 )">
    <path d="M 67.3516146993319 92.4489182692308  C 67.7712509279881 92.0302483974359  67.9810690423163 91.5124198717949  68 90.8954326923077  L 68 78.3353365384615  C 67.9810690423163 77.7183493589744  67.7712509279881 77.2005208333333  67.3516146993319 76.7818509615385  C 66.9319784706756 76.3631810897436  66.4350408314774 76.1538461538461  65.8608017817372 76  L 53.1391982182628 76  C 52.5649591685226 76.1538461538461  52.0680215293244 76.3631810897436  51.6483853006682 76.7818509615385  C 51.2287490720119 77.2005208333333  51.0189309576837 77.7183493589744  51 78.3353365384615  L 51 90.8954326923077  C 51.0189309576837 91.5124198717949  51.2287490720119 92.0302483974359  51.6483853006682 92.4489182692308  C 52.0680215293244 92.8675881410256  52.5649591685226 93.0769230769231  53.1391982182628 93  L 65.8608017817372 93  C 66.4350408314774 93.0769230769231  66.9319784706756 92.8675881410256  67.3516146993319 92.4489182692308  Z M 67.1528396436526 67.2626201923077  C 67.5724758723088 66.9761618589744  67.8043801039347 66.6125801282051  67.8485523385301 66.171875  L 69.0412026726058 35.8293269230769  C 69.0412026726058 35.3004807692308  68.8203414996288 34.8818108974359  68.3786191536748 34.5733173076923  C 67.8043801039347 34.0885416666667  67.2743132887899 33.8461538461538  66.7884187082405 34  L 52.2115812917595 34  C 51.7256867112101 33.8461538461538  51.1956198960653 34.0885416666667  50.6213808463252 34.5733173076923  C 50.1796585003712 34.8818108974359  49.9587973273942 35.3445512820513  49.9587973273942 35.9615384615385  L 51.0851893095768 66.171875  C 51.0851893095768 66.6125801282051  51.3060504825538 66.9761618589744  51.7477728285078 67.2626201923077  C 52.1894951744618 67.549078525641  52.7195619896065 67.6923076923077  53.3379732739421 67  L 65.5957683741648 67  C 66.2141796585004 67.6923076923077  66.7332034149963 67.549078525641  67.1528396436526 67.2626201923077  Z M 63.8067928730512 1.18990384615385  C 65.1319599109131 1.98317307692308  66.170007423905 3.06290064102563  66.9209354120267 4.42908653846154  L 117.807349665924 97.5060096153846  C 119.353377876763 100.282451923077  119.309205642168 103.058894230769  117.674832962138 105.835336538462  C 116.923904974016 107.113381410256  115.896900519673 108.127003205128  114.593819599109 108.876201923077  C 113.290738678545 109.625400641026  111.888270230141 110  110.386414253898 110  L 8.61358574610245 110  C 7.11172976985895 110  5.70926132145509 109.625400641026  4.40618040089087 108.876201923077  C 3.10309948032665 108.127003205128  2.07609502598367 107.113381410256  1.32516703786192 105.835336538462  C -0.30920564216778 103.058894230769  -0.353377876763178 100.282451923077  1.19265033407572 97.5060096153846  L 52.0790645879733 4.42908653846154  C 52.829992576095 3.06290064102563  53.8680400890869 1.98317307692308  55.1932071269488 1.18990384615385  C 56.5183741648107 0.39663461538462  57.9539717891611 0  59.5 0  C 61.0460282108389 0  62.4816258351893 0.39663461538462  63.8067928730512 1.18990384615385  Z " fill-rule="nonzero" fill="#ec6416" stroke="none" transform="matrix(1 0 0 1 673 530 )" />
  </g>
</svg>