<?xml version="1.0" encoding="utf-8"?>
<svg version="1.1" xmlns:xlink="http://www.w3.org/1999/xlink" width="17px" height="16px" xmlns="http://www.w3.org/2000/svg">
  <g transform="matrix(1 0 0 1 -754 -293 )">
    <path d="M 16.1326530612245 3.19791666666667  C 16.391156462585 3.30208333333333  16.5918367346939 3.45138888888889  16.734693877551 3.64583333333333  C 17.0068027210884 4.04166666666667  17.0680272108844 4.48958333333333  16.9183673469388 4.98958333333333  L 14.1122448979592 14.4270833333333  C 13.9829931972789 14.8715277777778  13.7227891156463 15.2447916666667  13.3316326530612 15.546875  C 12.9404761904762 15.8489583333333  12.5238095238095 16  12.0816326530612 16  L 2.66326530612245 16  C 2.13945578231293 16  1.6343537414966 15.8142361111111  1.14795918367347 15.4427083333333  C 0.66156462585034 15.0711805555556  0.32312925170068 14.6145833333333  0.13265306122449 14.0729166666667  C -0.0306122448979592 13.6076388888889  -0.0374149659863946 13.1666666666667  0.112244897959184 12.75  C 0.112244897959184 12.7222222222222  0.122448979591837 12.6284722222222  0.142857142857143 12.46875  C 0.163265306122449 12.3090277777778  0.17687074829932 12.1805555555556  0.183673469387755 12.0833333333333  C 0.19047619047619 12.0277777777778  0.180272108843537 11.953125  0.153061224489796 11.859375  C 0.125850340136054 11.765625  0.115646258503401 11.6979166666667  0.122448979591837 11.65625  C 0.136054421768707 11.5798611111111  0.163265306122449 11.5069444444444  0.204081632653061 11.4375  C 0.244897959183673 11.3680555555556  0.301020408163265 11.2864583333333  0.372448979591837 11.1927083333333  C 0.443877551020408 11.0989583333333  0.5 11.0173611111111  0.540816326530612 10.9479166666667  C 0.697278911564626 10.6840277777778  0.850340136054422 10.3663194444444  1 9.99479166666667  C 1.14965986394558 9.62326388888889  1.25170068027211 9.30555555555555  1.30612244897959 9.04166666666667  C 1.3265306122449 8.97222222222222  1.32823129251701 8.86805555555555  1.31122448979592 8.72916666666667  C 1.29421768707483 8.59027777777778  1.29251700680272 8.49305555555555  1.30612244897959 8.4375  C 1.3265306122449 8.36111111111111  1.3843537414966 8.26388888888889  1.47959183673469 8.14583333333333  C 1.57482993197279 8.02777777777778  1.63265306122449 7.94791666666667  1.6530612244898 7.90625  C 1.79591836734694 7.65625  1.93877551020408 7.33680555555556  2.08163265306122 6.94791666666667  C 2.22448979591837 6.55902777777778  2.30952380952381 6.24652777777778  2.33673469387755 6.01041666666667  C 2.34353741496599 5.94791666666667  2.33503401360544 5.83680555555556  2.31122448979592 5.67708333333333  C 2.28741496598639 5.51736111111111  2.2891156462585 5.42013888888889  2.31632653061224 5.38541666666667  C 2.34353741496599 5.29513888888889  2.41836734693878 5.18923611111111  2.54081632653061 5.06770833333333  C 2.66326530612245 4.94618055555556  2.73809523809524 4.86805555555556  2.76530612244898 4.83333333333333  C 2.89455782312925 4.65277777777778  3.0391156462585 4.359375  3.19897959183673 3.953125  C 3.35884353741497 3.546875  3.45238095238095 3.21180555555556  3.47959183673469 2.94791666666667  C 3.48639455782313 2.89236111111111  3.47619047619048 2.80381944444444  3.44897959183673 2.68229166666667  C 3.42176870748299 2.56076388888889  3.41496598639456 2.46875  3.42857142857143 2.40625  C 3.4421768707483 2.35069444444444  3.47278911564626 2.28819444444444  3.52040816326531 2.21875  C 3.56802721088435 2.14930555555556  3.62925170068027 2.06944444444444  3.70408163265306 1.97916666666667  C 3.77891156462585 1.88888888888889  3.83673469387755 1.81597222222222  3.87755102040816 1.76041666666667  C 3.93197278911565 1.67708333333333  3.98809523809524 1.57118055555556  4.04591836734694 1.44270833333333  C 4.10374149659864 1.31423611111111  4.15476190476191 1.19270833333333  4.19897959183673 1.078125  C 4.24319727891156 0.963541666666666  4.29761904761905 0.838541666666666  4.36224489795918 0.703125  C 4.42687074829932 0.567708333333334  4.49319727891156 0.456597222222221  4.56122448979592 0.369791666666666  C 4.62925170068027 0.282986111111109  4.71938775510204 0.201388888888888  4.83163265306122 0.125  C 4.94387755102041 0.0486111111111089  5.06632653061225 0.00868055555555536  5.19897959183673 0.00520833333333393  C 5.33163265306122 0.00173611111110894  5.49319727891157 0.0208333333333339  5.68367346938776 0.0625  L 5.6734693877551 0.09375  C 5.93197278911565 0.03125  6.10544217687075 0  6.19387755102041 0  L 13.9591836734694 0  C 14.4625850340136 0  14.8503401360544 0.194444444444443  15.1224489795918 0.583333333333334  C 15.3945578231293 0.972222222222221  15.4557823129252 1.42361111111111  15.3061224489796 1.9375  L 12.5102040816327 11.375  C 12.265306122449 12.2013888888889  12.0221088435374 12.734375  11.780612244898 12.9739583333333  C 11.5391156462585 13.2135416666667  11.1020408163265 13.3333333333333  10.469387755102 13.3333333333333  L 1.60204081632653 13.3333333333333  C 1.41836734693878 13.3333333333333  1.2891156462585 13.3854166666667  1.21428571428571 13.4895833333333  C 1.13945578231293 13.6006944444444  1.13605442176871 13.75  1.20408163265306 13.9375  C 1.36734693877551 14.4236111111111  1.85714285714286 14.6666666666667  2.6734693877551 14.6666666666667  L 12.0918367346939 14.6666666666667  C 12.2891156462585 14.6666666666667  12.4795918367347 14.6128472222222  12.6632653061224 14.5052083333333  C 12.8469387755102 14.3975694444444  12.9659863945578 14.2534722222222  13.0204081632653 14.0729166666667  L 16.0816326530612 3.79166666666667  C 16.1292517006803 3.63888888888889  16.1462585034014 3.44097222222222  16.1326530612245 3.19791666666667  Z M 6.09183673469388 3  L 5.87755102040816 3.66666666666667  C 5.85034013605442 3.75694444444444  5.85714285714286 3.83506944444444  5.89795918367347 3.90104166666667  C 5.93877551020408 3.96701388888889  6.00680272108844 4  6.10204081632653 4  L 12.3061224489796 4  C 12.3945578231293 4  12.4812925170068 3.96701388888889  12.5663265306122 3.90104166666667  C 12.6513605442177 3.83506944444444  12.7074829931973 3.75694444444444  12.734693877551 3.66666666666667  L 12.9489795918367 3  C 12.9761904761905 2.90972222222222  12.969387755102 2.83159722222222  12.9285714285714 2.765625  C 12.8877551020408 2.69965277777778  12.8197278911565 2.66666666666667  12.7244897959184 2.66666666666667  L 6.52040816326531 2.66666666666667  C 6.43197278911565 2.66666666666667  6.34523809523809 2.69965277777778  6.26020408163265 2.765625  C 6.17517006802721 2.83159722222222  6.11904761904762 2.90972222222222  6.09183673469388 3  Z M 5.24489795918367 5.66666666666667  L 5.03061224489796 6.33333333333333  C 5.00340136054422 6.42361111111111  5.01020408163265 6.50173611111111  5.05102040816327 6.56770833333333  C 5.09183673469388 6.63368055555556  5.15986394557823 6.66666666666667  5.25510204081633 6.66666666666667  L 11.4591836734694 6.66666666666667  C 11.547619047619 6.66666666666667  11.6343537414966 6.63368055555556  11.719387755102 6.56770833333333  C 11.8044217687075 6.50173611111111  11.8605442176871 6.42361111111111  11.8877551020408 6.33333333333333  L 12.1020408163265 5.66666666666667  C 12.1292517006803 5.57638888888889  12.1224489795918 5.49826388888889  12.0816326530612 5.43229166666667  C 12.0408163265306 5.36631944444444  11.9727891156463 5.33333333333333  11.8775510204082 5.33333333333333  L 5.6734693877551 5.33333333333333  C 5.58503401360544 5.33333333333333  5.49829931972789 5.36631944444444  5.41326530612245 5.43229166666667  C 5.32823129251701 5.49826388888889  5.27210884353742 5.57638888888889  5.24489795918367 5.66666666666667  Z " fill-rule="nonzero" fill="#9e9e9e" stroke="none" transform="matrix(1 0 0 1 754 293 )" />
  </g>
</svg>