<?xml version="1.0" encoding="utf-8"?>
<svg version="1.1" xmlns:xlink="http://www.w3.org/1999/xlink" width="132px" height="150px" xmlns="http://www.w3.org/2000/svg">
  <g transform="matrix(1 0 0 1 -428 -244 )">
    <path d="M 99.34375 5.69196428571429  L 126.15625 31.8080357142857  C 127.760416666667 33.3705357142857  129.135416666667 35.4910714285714  130.28125 38.1696428571429  C 131.427083333333 40.8482142857143  132 43.3035714285714  132 45.5357142857143  L 132 141.964285714286  C 132 144.196428571429  131.197916666667 146.09375  129.59375 147.65625  C 127.989583333333 149.21875  126.041666666667 150  123.75 150  L 8.25 150  C 5.95833333333333 150  4.01041666666667 149.21875  2.40625 147.65625  C 0.802083333333333 146.09375  0 144.196428571429  0 141.964285714286  L 0 8.03571428571429  C 0 5.80357142857142  0.802083333333333 3.90624999999999  2.40625 2.34375  C 4.01041666666667 0.781250000000006  5.95833333333333 0  8.25 0  L 85.25 0  C 87.5416666666667 0  90.0625 0.558035714285721  92.8125 1.67410714285715  C 95.5625 2.79017857142857  97.7395833333333 4.12946428571428  99.34375 5.69196428571429  Z M 91.5234375 13.2254464285714  C 90.8359375 12.5558035714286  89.6614583333333 11.9419642857143  88 11.3839285714286  L 88 43  L 120.3125 43  C 119.739583333333 41.2388392857143  119.109375 40.0948660714286  118.421875 39.4252232142857  L 91.5234375 13.2254464285714  Z M 11 139  L 121 139  L 121 54  L 85.25 54  C 82.9583333333333 53.5714285714286  81.0104166666667 52.7901785714286  79.40625 51.2276785714286  C 77.8020833333333 49.6651785714286  77 47.7678571428571  77 45.5357142857143  L 77 11  L 11 11  L 11 139  Z M 33 72.3214285714286  L 33 66.9642857142857  C 33 66.1830357142857  33.2578125 65.5412946428571  33.7734375 65.0390625  C 34.2890625 64.5368303571429  34.9479166666667 64.2857142857143  35.75 65  L 96.25 65  C 97.0520833333334 64.2857142857143  97.7109375 64.5368303571429  98.2265625 65.0390625  C 98.7421875 65.5412946428571  99 66.1830357142857  99 66.9642857142857  L 99 72.3214285714286  C 99 73.1026785714286  98.7421875 73.7444196428571  98.2265625 74.2466517857143  C 97.7109375 74.7488839285714  97.0520833333334 75  96.25 75  L 35.75 75  C 34.9479166666667 75  34.2890625 74.7488839285714  33.7734375 74.2466517857143  C 33.2578125 73.7444196428571  33 73.1026785714286  33 72.3214285714286  Z M 35.75 85  L 96.25 85  C 97.0520833333334 85.7142857142857  97.7109375 85.9654017857143  98.2265625 86.4676339285714  C 98.7421875 86.9698660714286  99 87.6116071428571  99 88.3928571428571  L 99 93.75  C 99 94.53125  98.7421875 95.1729910714286  98.2265625 95.6752232142857  C 97.7109375 96.1774553571429  97.0520833333334 96.4285714285714  96.25 96  L 35.75 96  C 34.9479166666667 96.4285714285714  34.2890625 96.1774553571429  33.7734375 95.6752232142857  C 33.2578125 95.1729910714286  33 94.53125  33 93.75  L 33 88.3928571428571  C 33 87.6116071428571  33.2578125 86.9698660714286  33.7734375 86.4676339285714  C 34.2890625 85.9654017857143  34.9479166666667 85.7142857142857  35.75 85  Z M 35.75 107  L 96.25 107  C 97.0520833333334 107.142857142857  97.7109375 107.393973214286  98.2265625 107.896205357143  C 98.7421875 108.3984375  99 109.040178571429  99 109.821428571429  L 99 115.178571428571  C 99 115.959821428571  98.7421875 116.6015625  98.2265625 117.103794642857  C 97.7109375 117.606026785714  97.0520833333334 117.857142857143  96.25 117  L 35.75 117  C 34.9479166666667 117.857142857143  34.2890625 117.606026785714  33.7734375 117.103794642857  C 33.2578125 116.6015625  33 115.959821428571  33 115.178571428571  L 33 109.821428571429  C 33 109.040178571429  33.2578125 108.3984375  33.7734375 107.896205357143  C 34.2890625 107.393973214286  34.9479166666667 107.142857142857  35.75 107  Z " fill-rule="nonzero" fill="#9e9e9e" stroke="none" transform="matrix(1 0 0 1 428 244 )" />
  </g>
</svg>