<?xml version="1.0" encoding="utf-8"?>
<svg version="1.1" xmlns:xlink="http://www.w3.org/1999/xlink" width="24px" height="15px" xmlns="http://www.w3.org/2000/svg">
  <g transform="matrix(1 0 0 1 -815 -293 )">
    <path d="M 17.8191964285714 11.7513020833333  C 19.609375 10.6966145833333  21.0982142857143 9.27951388888889  22.2857142857143 7.5  C 20.9285714285714 5.45138888888889  19.2276785714286 3.91927083333333  17.1830357142857 2.90364583333333  C 17.7276785714286 3.80642361111111  18 4.78298611111111  18 5.83333333333333  C 18 7.43923611111111  17.4129464285714 8.81293402777778  16.2388392857143 9.95442708333333  C 15.0647321428571 11.0959201388889  13.6517857142857 11.6666666666667  12 11.6666666666667  C 10.3482142857143 11.6666666666667  8.93526785714286 11.0959201388889  7.76116071428572 9.95442708333333  C 6.58705357142857 8.81293402777778  6 7.43923611111111  6 5.83333333333333  C 6 4.78298611111111  6.27232142857143 3.80642361111111  6.81696428571428 2.90364583333333  C 4.77232142857143 3.91927083333333  3.07142857142857 5.45138888888889  1.71428571428571 7.5  C 2.90178571428571 9.27951388888889  4.390625 10.6966145833333  6.18080357142857 11.7513020833333  C 7.97098214285714 12.8059895833333  9.91071428571428 13.3333333333333  12 13.3333333333333  C 14.0892857142857 13.3333333333333  16.0290178571429 12.8059895833333  17.8191964285714 11.7513020833333  Z M 12.4553571428571 2.94270833333333  C 12.5803571428571 2.82118055555556  12.6428571428571 2.67361111111111  12.6428571428571 2.5  C 12.6428571428571 2.32638888888889  12.5803571428571 2.17881944444444  12.4553571428571 2.05729166666667  C 12.3303571428571 1.93576388888889  12.1785714285714 1.875  12 1.875  C 10.8839285714286 1.875  9.92633928571429 2.26345486111111  9.12723214285714 3.04036458333333  C 8.328125 3.81727430555556  7.92857142857143 4.74826388888889  7.92857142857143 5.83333333333333  C 7.92857142857143 6.00694444444444  7.99107142857143 6.15451388888889  8.11607142857143 6.27604166666667  C 8.24107142857143 6.39756944444444  8.39285714285714 6.45833333333333  8.57142857142857 6.45833333333333  C 8.75 6.45833333333333  8.90178571428572 6.39756944444444  9.02678571428572 6.27604166666667  C 9.15178571428572 6.15451388888889  9.21428571428572 6.00694444444444  9.21428571428572 5.83333333333333  C 9.21428571428572 5.08680555555556  9.48660714285714 4.44878472222222  10.03125 3.91927083333333  C 10.5758928571429 3.38975694444444  11.2321428571429 3.125  12 3.125  C 12.1785714285714 3.125  12.3303571428571 3.06423611111111  12.4553571428571 2.94270833333333  Z M 23.7321428571429 6.6015625  C 23.9107142857143 6.90538194444444  24 7.20486111111111  24 7.5  C 24 7.79513888888889  23.9107142857143 8.09461805555556  23.7321428571429 8.3984375  C 22.4821428571429 10.3949652777778  20.8013392857143 11.9943576388889  18.6897321428571 13.1966145833333  C 16.578125 14.3988715277778  14.3482142857143 15  12 15  C 9.65178571428572 15  7.421875 14.3967013888889  5.31026785714286 13.1901041666667  C 3.19866071428571 11.9835069444444  1.51785714285714 10.3862847222222  0.267857142857143 8.3984375  C 0.0892857142857143 8.09461805555556  0 7.79513888888889  0 7.5  C 0 7.20486111111111  0.0892857142857143 6.90538194444444  0.267857142857143 6.6015625  C 1.51785714285714 4.61371527777778  3.19866071428571 3.01649305555555  5.31026785714286 1.80989583333333  C 7.421875 0.60329861111111  9.65178571428572 0  12 0  C 14.3482142857143 0  16.578125 0.60329861111111  18.6897321428571 1.80989583333333  C 20.8013392857143 3.01649305555555  22.4821428571429 4.61371527777778  23.7321428571429 6.6015625  Z " fill-rule="nonzero" fill="#9e9e9e" stroke="none" transform="matrix(1 0 0 1 815 293 )" />
  </g>
</svg>