<?xml version="1.0" encoding="utf-8"?>
<svg version="1.1" xmlns:xlink="http://www.w3.org/1999/xlink" width="96px" height="96px" xmlns="http://www.w3.org/2000/svg">
  <g transform="matrix(1 0 0 1 -451 -446 )">
    <path d="M 499 446  C 525.88 446  547 467.12  547 494  C 547 520.88  525.88 542  499 542  C 472.12 542  451 520.88  451 494  C 451 467.12  472.12 446  499 446  Z " fill-rule="nonzero" fill="#169bd5" stroke="none" />
    <path d="M 499 446.5  C 525.6 446.5  546.5 467.4  546.5 494  C 546.5 520.6  525.6 541.5  499 541.5  C 472.4 541.5  451.5 520.6  451.5 494  C 451.5 467.4  472.4 446.5  499 446.5  Z " stroke-width="1" stroke="#e6e6e6" fill="none" />
  </g>
</svg>