<?xml version="1.0" encoding="utf-8"?>
<svg version="1.1" xmlns:xlink="http://www.w3.org/1999/xlink" width="154px" height="25px" xmlns="http://www.w3.org/2000/svg">
  <defs>
    <mask fill="white" id="clip37">
      <path d="M 0 21  L 0 4  C 0 1.75999999999999  1.75999999999999 0  4 0  L 62.2777777777783 0  L 150 0  C 152.24 0  154 1.75999999999999  154 4  L 154 21  C 154 23.24  152.24 25  150 25  L 4 25  C 1.75999999999999 25  0 23.24  0 21  Z " fill-rule="evenodd" />
    </mask>
  </defs>
  <g transform="matrix(1 0 0 1 -233 -138 )">
    <path d="M 0 21  L 0 4  C 0 1.75999999999999  1.75999999999999 0  4 0  L 62.2777777777783 0  L 150 0  C 152.24 0  154 1.75999999999999  154 4  L 154 21  C 154 23.24  152.24 25  150 25  L 4 25  C 1.75999999999999 25  0 23.24  0 21  Z " fill-rule="nonzero" fill="#ffffff" stroke="none" fill-opacity="0" transform="matrix(1 0 0 1 233 138 )" />
    <path d="M 0 21  L 0 4  C 0 1.75999999999999  1.75999999999999 0  4 0  L 62.2777777777783 0  L 150 0  C 152.24 0  154 1.75999999999999  154 4  L 154 21  C 154 23.24  152.24 25  150 25  L 4 25  C 1.75999999999999 25  0 23.24  0 21  Z " stroke-width="2" stroke="#797979" fill="none" transform="matrix(1 0 0 1 233 138 )" mask="url(#clip37)" />
  </g>
</svg>