<?xml version="1.0" encoding="utf-8"?>
<svg version="1.1" xmlns:xlink="http://www.w3.org/1999/xlink" width="16px" height="16px" xmlns="http://www.w3.org/2000/svg">
  <g transform="matrix(1 0 0 1 -172 -240 )">
    <path d="M 4.89285714285714 0.633928571428571  C 5.88095238095238 0.211309523809524  6.91666666666667 0  8 0  C 9.08333333333333 0  10.1190476190476 0.211309523809524  11.1071428571429 0.633928571428571  C 12.0952380952381 1.05654761904762  12.9464285714286 1.625  13.6607142857143 2.33928571428571  C 14.375 3.05357142857143  14.9434523809524 3.9047619047619  15.3660714285714 4.89285714285714  C 15.7886904761905 5.88095238095238  16 6.91666666666667  16 8  C 16 9.07738095238095  15.7901785714286 10.110119047619  15.3705357142857 11.0982142857143  C 14.9508928571429 12.0863095238095  14.3839285714286 12.9375  13.6696428571429 13.6517857142857  C 12.9553571428571 14.3660714285714  12.1041666666667 14.9360119047619  11.1160714285714 15.3616071428571  C 10.1279761904762 15.7872023809524  9.08928571428571 16  8 16  C 6.91071428571429 16  5.87202380952381 15.7886904761905  4.88392857142857 15.3660714285714  C 3.89583333333333 14.9434523809524  3.04613095238095 14.3735119047619  2.33482142857143 13.65625  C 1.6235119047619 12.9389880952381  1.05654761904762 12.0877976190476  0.633928571428571 11.1026785714286  C 0.211309523809524 10.1175595238095  0 9.08333333333333  0 8  C 0 6.91666666666667  0.211309523809524 5.88095238095238  0.633928571428571 4.89285714285714  C 1.05654761904762 3.9047619047619  1.625 3.05357142857143  2.33928571428571 2.33928571428571  C 3.05357142857143 1.625  3.90476190476191 1.05654761904762  4.89285714285714 0.633928571428571  Z M 10.7946428571429 9.14285714285714  C 12.2232142857143 9.14285714285714  13.1339285714286 10.1160714285714  13.5267857142857 12.0625  C 14.4136904761905 10.8422619047619  14.8571428571429 9.48809523809524  14.8571428571429 8  C 14.8571428571429 7.07142857142857  14.6755952380952 6.18452380952381  14.3125 5.33928571428571  C 13.9494047619048 4.49404761904762  13.4613095238095 3.76488095238095  12.8482142857143 3.15178571428571  C 12.235119047619 2.53869047619048  11.5059523809524 2.05059523809524  10.6607142857143 1.6875  C 9.81547619047619 1.32440476190476  8.92857142857143 1.14285714285714  8 1.14285714285714  C 7.07142857142857 1.14285714285714  6.18452380952381 1.32440476190476  5.33928571428571 1.6875  C 4.49404761904762 2.05059523809524  3.76488095238095 2.53869047619048  3.15178571428571 3.15178571428571  C 2.53869047619048 3.76488095238095  2.05059523809524 4.49404761904762  1.6875 5.33928571428571  C 1.32440476190476 6.18452380952381  1.14285714285714 7.07142857142857  1.14285714285714 8  C 1.14285714285714 9.48809523809524  1.58630952380952 10.8422619047619  2.47321428571429 12.0625  C 2.86607142857143 10.1160714285714  3.77678571428571 9.14285714285714  5.20535714285714 9.14285714285714  C 5.98511904761905 9.90476190476191  6.91666666666667 10.2857142857143  8 10.2857142857143  C 9.08333333333333 10.2857142857143  10.014880952381 9.90476190476191  10.7946428571429 9.14285714285714  Z M 10.4241071428571 8.70982142857143  C 11.09375 8.04017857142857  11.4285714285714 7.23214285714286  11.4285714285714 6.28571428571429  C 11.4285714285714 5.33928571428571  11.09375 4.53125  10.4241071428571 3.86160714285714  C 9.75446428571429 3.19196428571429  8.94642857142857 2.85714285714286  8 2.85714285714286  C 7.05357142857143 2.85714285714286  6.24553571428571 3.19196428571429  5.57589285714286 3.86160714285714  C 4.90625 4.53125  4.57142857142857 5.33928571428571  4.57142857142857 6.28571428571429  C 4.57142857142857 7.23214285714286  4.90625 8.04017857142857  5.57589285714286 8.70982142857143  C 6.24553571428571 9.37946428571428  7.05357142857143 9.71428571428572  8 9.71428571428572  C 8.94642857142857 9.71428571428572  9.75446428571429 9.37946428571428  10.4241071428571 8.70982142857143  Z " fill-rule="nonzero" fill="#ababab" stroke="none" transform="matrix(1 0 0 1 172 240 )" />
  </g>
</svg>