<?xml version="1.0" encoding="utf-8"?>
<svg version="1.1" xmlns:xlink="http://www.w3.org/1999/xlink" width="19px" height="16px" xmlns="http://www.w3.org/2000/svg">
  <g transform="matrix(1 0 0 1 -1217 -343 )">
    <path d="M 5.14892578125 4.45563549160672  C 5.30354817708333 4.29896083133493  5.380859375 4.08952837729816  5.380859375 3.8273381294964  C 5.380859375 3.56514788169464  5.30354817708333 3.35411670663469  5.14892578125 3.19424460431655  C 4.99430338541667 3.0343725019984  4.79020182291667 2.95443645083933  4.53662109375 2.95443645083933  C 4.27067057291667 2.95443645083933  4.03564453125 3.03597122302158  3.83154296875 3.19904076738609  C 3.62744140625 3.3621103117506  3.525390625 3.57154276578737  3.525390625 3.8273381294964  C 3.525390625 4.07673860911271  3.62744140625 4.28297362110312  3.83154296875 4.44604316546763  C 4.03564453125 4.60911270983213  4.27067057291667 4.69064748201439  4.53662109375 4.69064748201439  C 4.79020182291667 4.69064748201439  4.99430338541667 4.6123101518785  5.14892578125 4.45563549160672  Z M 12.037353515625 9.17985611510791  C 12.195068359375 9.03916866506794  12.27392578125 8.87609912070344  12.27392578125 8.69064748201439  C 12.27392578125 8.51159072741806  12.195068359375 8.35171862509992  12.037353515625 8.21103117505995  C 11.879638671875 8.07034372501998  11.6770833333333 8  11.4296875 8  C 11.2626953125 8  11.109619140625 8.07194244604317  10.970458984375 8.2158273381295  C 10.831298828125 8.35971223021583  10.76171875 8.51798561151079  10.76171875 8.69064748201439  C 10.76171875 8.86970423661071  10.831298828125 9.03117505995204  10.970458984375 9.17505995203837  C 11.109619140625 9.3189448441247  11.2626953125 9.39088729016787  11.4296875 9.39088729016787  C 11.6770833333333 9.39088729016787  11.879638671875 9.32054356514788  12.037353515625 9.17985611510791  Z M 9.857177734375 4.45563549160672  C 10.0087076822917 4.29896083133493  10.08447265625 4.08952837729816  10.08447265625 3.8273381294964  C 10.08447265625 3.56514788169464  10.0087076822917 3.35411670663469  9.857177734375 3.19424460431655  C 9.70564778645833 3.0343725019984  9.50309244791667 2.95443645083933  9.24951171875 2.95443645083933  C 8.98356119791667 2.95443645083933  8.74853515625 3.03597122302158  8.54443359375 3.19904076738609  C 8.34033203125 3.3621103117506  8.23828125 3.57154276578737  8.23828125 3.8273381294964  C 8.23828125 4.07673860911271  8.34033203125 4.28297362110312  8.54443359375 4.44604316546763  C 8.74853515625 4.60911270983213  8.98356119791667 4.69064748201439  9.24951171875 4.69064748201439  C 9.50309244791667 4.69064748201439  9.70564778645833 4.6123101518785  9.857177734375 4.45563549160672  Z M 15.734375 9.17985611510791  C 15.8951822916667 9.03916866506794  15.9755859375 8.87609912070344  15.9755859375 8.69064748201439  C 15.9755859375 8.51159072741806  15.8951822916667 8.35171862509992  15.734375 8.21103117505995  C 15.5735677083333 8.07034372501998  15.37255859375 8  15.13134765625 8  C 14.96435546875 8  14.811279296875 8.07194244604317  14.672119140625 8.2158273381295  C 14.532958984375 8.35971223021583  14.46337890625 8.51798561151079  14.46337890625 8.69064748201439  C 14.46337890625 8.86970423661071  14.532958984375 9.03117505995204  14.672119140625 9.17505995203837  C 14.811279296875 9.3189448441247  14.96435546875 9.39088729016787  15.13134765625 9.39088729016787  C 15.37255859375 9.39088729016787  15.5735677083333 9.32054356514788  15.734375 9.17985611510791  Z M 12.241455078125 2.38369304556355  C 12.8939615885417 3.12869704236611  13.3160807291667 3.96163069544365  13.5078125 4.88249400479616  C 13.3160807291667 4.85691446842526  13.099609375 4.84412470023981  12.8583984375 4.84412470023981  C 11.8131510416667 4.84412470023981  10.8513997395833 5.09032773780975  9.97314453125 5.58273381294964  C 9.09488932291667 6.07513988808953  8.40372721354167 6.7418065547562  7.899658203125 7.58273381294964  C 7.39558919270833 8.42366107114309  7.1435546875 9.34292565947242  7.1435546875 10.3405275779376  C 7.1435546875 10.8393285371703  7.21468098958333 11.3253397282174  7.35693359375 11.7985611510791  C 7.14046223958333 11.8177458033573  6.93017578125 11.8273381294964  6.72607421875 11.8273381294964  C 6.56526692708333 11.8273381294964  6.41064453125 11.8225419664269  6.26220703125 11.8129496402878  C 6.11376953125 11.8033573141487  5.94368489583333 11.7825739408473  5.751953125 11.7505995203837  C 5.56022135416667 11.7186250999201  5.422607421875 11.6962430055955  5.339111328125 11.6834532374101  C 5.255615234375 11.6706634692246  5.08707682291667 11.6370903277378  4.83349609375 11.5827338129496  C 4.57991536458333 11.5283772981615  4.42529296875 11.4948041566747  4.36962890625 11.4820143884892  L 2.0224609375 12.7002398081535  L 2.6904296875 10.6091127098321  C 0.896809895833333 9.31095123900879  0 7.74420463629097  0 5.90887290167866  C 0 4.82813749000799  0.301513671875 3.83373301358913  0.904541015625 2.92565947242206  C 1.507568359375 2.017585931255  2.323974609375 1.30295763389288  3.353759765625 0.781774580335732  C 4.383544921875 0.260591526778576  5.50764973958333 0  6.72607421875 0  C 7.81461588541667 0  8.84285481770833 0.211031175059953  9.810791015625 0.633093525179856  C 10.7787272135417 1.05515587529976  11.5889485677083 1.63868904876099  12.241455078125 2.38369304556355  Z M 18.206787109375 7.73621103117506  C 18.735595703125 8.51318944844125  19 9.35571542765787  19 10.2637889688249  C 19 11.0119904076739  18.7881673177083 11.726618705036  18.364501953125 12.4076738609113  C 17.9408365885417 13.0887290167866  17.3671875 13.7074340527578  16.6435546875 14.2637889688249  L 17.15380859375 16  L 15.3076171875 14.9544364508393  C 14.3798828125 15.1910471622702  13.7057291666667 15.3093525179856  13.28515625 15.3093525179856  C 12.2399088541667 15.3093525179856  11.2781575520833 15.083932853717  10.39990234375 14.6330935251799  C 9.52164713541667 14.1822541966427  8.83048502604167 13.5699440447642  8.326416015625 12.7961630695444  C 7.82234700520833 12.0223820943245  7.5703125 11.1782573940847  7.5703125 10.2637889688249  C 7.5703125 9.34932054356515  7.82234700520833 8.50519584332534  8.326416015625 7.73141486810552  C 8.83048502604167 6.95763389288569  9.52164713541667 6.34532374100719  10.39990234375 5.89448441247002  C 11.2781575520833 5.44364508393285  12.2399088541667 5.21822541966427  13.28515625 5.21822541966427  C 14.2809244791667 5.21822541966427  15.2179361979167 5.44364508393285  16.09619140625 5.89448441247002  C 16.9744466145833 6.34532374100719  17.677978515625 6.95923261390887  18.206787109375 7.73621103117506  Z " fill-rule="nonzero" fill="#007bff" stroke="none" transform="matrix(1 0 0 1 1217 343 )" />
  </g>
</svg>