<?xml version="1.0" encoding="utf-8"?>
<svg version="1.1" xmlns:xlink="http://www.w3.org/1999/xlink" width="134px" height="134px" xmlns="http://www.w3.org/2000/svg">
  <g transform="matrix(1 0 0 1 -179 -1070 )">
    <path d="M 40.9776785714286 5.30915178571428  C 49.2529761904762 1.76971726190476  57.9270833333333 0  67 0  C 76.0729166666667 0  84.7470238095238 1.76971726190476  93.0223214285714 5.30915178571428  C 101.297619047619 8.84858630952381  108.426339285714 13.609375  114.408482142857 19.5915178571429  C 120.390625 25.5736607142857  125.151413690476 32.7023809523809  128.690848214286 40.9776785714286  C 132.230282738095 49.2529761904762  134 57.9270833333333  134 67  C 134 76.0230654761905  132.242745535714 84.6722470238095  128.728236607143 92.9475446428571  C 125.213727678571 101.222842261905  120.465401785714 108.3515625  114.483258928571 114.333705357143  C 108.501116071429 120.315848214286  101.372395833333 125.089099702381  93.0970982142857 128.653459821429  C 84.8218005952381 132.217819940476  76.1227678571428 134  67 134  C 57.8772321428571 134  49.1781994047619 132.230282738095  40.9029017857143 128.690848214286  C 32.6276041666667 125.151413690476  25.5113467261905 120.378162202381  19.5541294642857 114.37109375  C 13.596912202381 108.364025297619  8.84858630952381 101.235305059524  5.30915178571429 92.9849330357143  C 1.76971726190476 84.7345610119047  0 76.0729166666667  0 67  C 0 57.9270833333333  1.76971726190476 49.2529761904762  5.30915178571429 40.9776785714286  C 8.84858630952381 32.7023809523809  13.609375 25.5736607142857  19.5915178571429 19.5915178571429  C 25.5736607142857 13.609375  32.702380952381 8.84858630952381  40.9776785714286 5.30915178571428  Z M 90.4051339285714 76.5714285714286  C 102.369419642857 76.5714285714286  109.996651785714 84.7220982142857  113.286830357143 101.0234375  C 120.714657738095 90.8039434523809  124.428571428571 79.4627976190476  124.428571428571 67  C 124.428571428571 59.2232142857143  122.908110119048 51.7953869047619  119.8671875 44.7165178571429  C 116.826264880952 37.6376488095238  112.738467261905 31.5308779761905  107.603794642857 26.3962053571429  C 102.46912202381 21.2615327380952  96.3623511904762 17.1737351190476  89.2834821428572 14.1328125  C 82.2046130952381 11.0918898809524  74.7767857142857 9.57142857142857  67 9.57142857142857  C 59.2232142857143 9.57142857142857  51.7953869047619 11.0918898809524  44.7165178571429 14.1328125  C 37.6376488095238 17.1737351190476  31.5308779761905 21.2615327380952  26.3962053571429 26.3962053571429  C 21.2615327380952 31.5308779761905  17.1737351190476 37.6376488095238  14.1328125 44.7165178571429  C 11.0918898809524 51.7953869047619  9.57142857142857 59.2232142857143  9.57142857142857 67  C 9.57142857142857 79.4627976190476  13.2853422619048 90.8039434523809  20.7131696428571 101.0234375  C 24.0033482142857 84.7220982142857  31.6305803571429 76.5714285714286  43.5948660714286 76.5714285714286  C 50.1253720238095 82.9523809523809  57.9270833333333 86.1428571428571  67 86.1428571428571  C 76.0729166666667 86.1428571428571  83.8746279761905 82.9523809523809  90.4051339285714 76.5714285714286  Z M 87.3018973214286 72.9447544642857  C 92.91015625 67.3364955357143  95.7142857142857 60.5691964285714  95.7142857142857 52.6428571428571  C 95.7142857142857 44.7165178571429  92.91015625 37.94921875  87.3018973214286 32.3409598214286  C 81.6936383928572 26.7327008928571  74.9263392857143 23.9285714285714  67 23.9285714285714  C 59.0736607142857 23.9285714285714  52.3063616071429 26.7327008928571  46.6981026785714 32.3409598214286  C 41.08984375 37.94921875  38.2857142857143 44.7165178571429  38.2857142857143 52.6428571428571  C 38.2857142857143 60.5691964285714  41.08984375 67.3364955357143  46.6981026785714 72.9447544642857  C 52.3063616071429 78.5530133928571  59.0736607142857 81.3571428571429  67 81.3571428571429  C 74.9263392857143 81.3571428571429  81.6936383928572 78.5530133928571  87.3018973214286 72.9447544642857  Z " fill-rule="nonzero" fill="#a7a7a7" stroke="none" transform="matrix(1 0 0 1 179 1070 )" />
  </g>
</svg>