<?xml version="1.0" encoding="utf-8"?>
<svg version="1.1" xmlns:xlink="http://www.w3.org/1999/xlink" width="103px" height="95px" xmlns="http://www.w3.org/2000/svg">
  <g transform="matrix(1 0 0 1 -657 -499 )">
    <path d="M 58.2959354120267 79.8422475961539  C 58.6591499628805 79.4806690705128  58.8407572383073 79.033453525641  58 78.5006009615385  L 58 67.6532451923077  C 58.8407572383073 67.1203926282051  58.6591499628805 66.6731770833333  58.2959354120267 66.3115985576923  C 57.932720861173 65.9500200320513  57.5025983667409 65.7692307692308  57.0055679287305 65  L 45.9944320712695 65  C 45.4974016332591 65.7692307692308  45.067279138827 65.9500200320513  44.7040645879733 66.3115985576923  C 44.3408500371195 66.6731770833333  44.1592427616926 67.1203926282051  45 67.6532451923077  L 45 78.5006009615385  C 44.1592427616926 79.033453525641  44.3408500371195 79.4806690705128  44.7040645879733 79.8422475961539  C 45.067279138827 80.2038261217949  45.4974016332591 80.3846153846154  45.9944320712695 80  L 57.0055679287305 80  C 57.5025983667409 80.3846153846154  57.932720861173 80.2038261217949  58.2959354120267 79.8422475961539  Z M 58.1238864142539 58.0904447115385  C 58.4871009651077 57.8430488782051  58.6878247958426 57.529046474359  58.7260579064588 57.1484375  L 59.7583518930958 30.9435096153846  C 59.7583518930958 30.4867788461539  59.5671863400149 30.1252003205128  59.184855233853 29.8587740384615  C 58.6878247958426 29.4401041666667  58.2290274684484 29.2307692307692  57.8084632516704 30  L 45.1915367483296 30  C 44.7709725315516 29.2307692307692  44.3121752041574 29.4401041666667  43.815144766147 29.8587740384615  C 43.4328136599852 30.1252003205128  43.2416481069042 30.5248397435897  43.2416481069042 31.0576923076923  L 44.2165924276169 57.1484375  C 44.2165924276169 57.529046474359  44.4077579806979 57.8430488782051  44.7900890868597 58.0904447115385  C 45.1724201930215 58.3378405448718  45.6312175204157 58.4615384615385  46.1664810690423 58  L 56.7761692650334 58  C 57.31143281366 58.4615384615385  57.7606718634001 58.3378405448718  58.1238864142539 58.0904447115385  Z M 55.227728285078 1.02764423076923  C 56.3747216035635 1.71274038461538  57.2731997030438 2.64523237179487  57.9231625835189 3.8251201923077  L 101.967706013363 84.2097355769231  C 103.305864884929 86.6075721153846  103.267631774313 89.0054086538461  101.853006681514 91.4032451923077  C 101.203043801039 92.5070112179487  100.314123979213 93.3824118589744  99.1862472160356 94.0294471153846  C 98.0583704528582 94.6764823717949  96.8444691907944 95  95.5445434298441 95  L 7.4554565701559 95  C 6.15553080920564 95  4.9416295471418 94.6764823717949  3.81375278396437 94.0294471153846  C 2.68587602078693 93.3824118589744  1.79695619896065 92.5070112179487  1.14699331848552 91.4032451923077  C -0.267631774313289 89.0054086538461  -0.305864884929473 86.6075721153846  1.03229398663697 84.2097355769231  L 45.0768374164811 3.8251201923077  C 45.7268002969562 2.64523237179487  46.6252783964365 1.71274038461538  47.772271714922 1.02764423076923  C 48.9192650334076 0.342548076923081  50.1618411284336 0  51.5 0  C 52.8381588715664 0  54.0807349665924 0.342548076923081  55.227728285078 1.02764423076923  Z " fill-rule="nonzero" fill="#ec6416" stroke="none" transform="matrix(1 0 0 1 657 499 )" />
  </g>
</svg>