<?xml version="1.0" encoding="utf-8"?>
<svg version="1.1" xmlns:xlink="http://www.w3.org/1999/xlink" width="21px" height="18px" xmlns="http://www.w3.org/2000/svg">
  <g transform="matrix(1 0 0 1 -1337 -465 )">
    <path d="M 20.740234375 14.6671875  C 20.9134114583333 14.8453125  21 15.05625  21 15.3  L 21 17.1  C 21 17.34375  20.9134114583333 17.5546875  20.740234375 17.7328125  C 20.5670572916667 17.9109375  20.3619791666667 18  20.125 18  L 0.875 18  C 0.638020833333333 18  0.432942708333333 17.9109375  0.259765625 17.7328125  C 0.0865885416666667 17.5546875  0 17.34375  0 17.1  L 0 15.3  C 0 15.05625  0.0865885416666667 14.8453125  0.259765625 14.6671875  C 0.432942708333333 14.4890625  0.638020833333333 14.4  0.875 14.4  L 20.125 14.4  C 20.3619791666667 14.4  20.5670572916667 14.4890625  20.740234375 14.6671875  Z M 20.740234375 7.4671875  C 20.9134114583333 7.6453125  21 7.85625  21 8.1  L 21 9.9  C 21 10.14375  20.9134114583333 10.3546875  20.740234375 10.5328125  C 20.5670572916667 10.7109375  20.3619791666667 10.8  20.125 10.8  L 0.875 10.8  C 0.638020833333333 10.8  0.432942708333333 10.7109375  0.259765625 10.5328125  C 0.0865885416666667 10.3546875  0 10.14375  0 9.9  L 0 8.1  C 0 7.85625  0.0865885416666667 7.6453125  0.259765625 7.4671875  C 0.432942708333333 7.2890625  0.638020833333333 7.2  0.875 7.2  L 20.125 7.2  C 20.3619791666667 7.2  20.5670572916667 7.2890625  20.740234375 7.4671875  Z M 20.740234375 0.267187500000001  C 20.9134114583333 0.445312499999999  21 0.656249999999999  21 0.900000000000001  L 21 2.7  C 21 2.94375  20.9134114583333 3.1546875  20.740234375 3.3328125  C 20.5670572916667 3.5109375  20.3619791666667 3.6  20.125 3.6  L 0.875 3.6  C 0.638020833333333 3.6  0.432942708333333 3.5109375  0.259765625 3.3328125  C 0.0865885416666667 3.1546875  0 2.94375  0 2.7  L 0 0.900000000000001  C 0 0.656249999999999  0.0865885416666667 0.445312499999999  0.259765625 0.267187500000001  C 0.432942708333333 0.0890624999999989  0.638020833333333 0  0.875 0  L 20.125 0  C 20.3619791666667 0  20.5670572916667 0.0890624999999989  20.740234375 0.267187500000001  Z " fill-rule="nonzero" fill="#909090" stroke="none" transform="matrix(1 0 0 1 1337 465 )" />
  </g>
</svg>