<?xml version="1.0" encoding="utf-8"?>
<svg version="1.1" xmlns:xlink="http://www.w3.org/1999/xlink" width="109px" height="106px" xmlns="http://www.w3.org/2000/svg">
  <g transform="matrix(1 0 0 1 -896 -1343 )">
    <path d="M 19.8181818181818 77.0909090909091  L 29.7272727272727 77.0909090909091  L 29.7272727272727 86.7272727272727  L 19.8181818181818 86.7272727272727  L 19.8181818181818 77.0909090909091  Z M 19.8181818181818 19.2727272727273  L 29.7272727272727 19.2727272727273  L 29.7272727272727 28.9090909090909  L 19.8181818181818 28.9090909090909  L 19.8181818181818 19.2727272727273  Z M 79.2727272727273 19.2727272727273  L 89.1818181818182 19.2727272727273  L 89.1818181818182 28.9090909090909  L 79.2727272727273 28.9090909090909  L 79.2727272727273 19.2727272727273  Z M 10 67  L 10 96  L 40 96  L 40 67  L 10 67  Z M 10 10  L 10 39  L 40 39  L 40 10  L 10 10  Z M 69 10  L 69 39  L 99 39  L 99 10  L 69 10  Z M 0 57  L 50 57  L 50 106  L 0 106  L 0 57  Z M 79.2727272727273 96.3636363636364  L 89.1818181818182 96.3636363636364  L 89.1818181818182 106  L 79.2727272727273 106  L 79.2727272727273 96.3636363636364  Z M 99.0909090909091 96.3636363636364  L 109 96.3636363636364  L 109 106  L 99.0909090909091 106  L 99.0909090909091 96.3636363636364  Z M 99.0909090909091 57.8181818181818  L 109 57.8181818181818  L 109 86  L 79.2727272727273 86  L 79.2727272727273 77.0909090909091  L 69 77.0909090909091  L 69 106  L 59 106  L 59 57  L 89 57  L 89 67  L 99.0909090909091 67  L 99.0909090909091 57.8181818181818  Z M 0 0  L 50 0  L 50 49  L 0 49  L 0 0  Z M 59 0  L 109 0  L 109 49  L 59 49  L 59 0  Z " fill-rule="nonzero" fill="#000000" stroke="none" transform="matrix(1 0 0 1 896 1343 )" />
  </g>
</svg>