<?xml version="1.0" encoding="utf-8"?>
<svg version="1.1" xmlns:xlink="http://www.w3.org/1999/xlink" width="103px" height="106px" xmlns="http://www.w3.org/2000/svg">
  <g transform="matrix(1 0 0 1 -1110 -1343 )">
    <path d="M 18.7272727272727 77.0909090909091  L 28.0909090909091 77.0909090909091  L 28.0909090909091 86.7272727272727  L 18.7272727272727 86.7272727272727  L 18.7272727272727 77.0909090909091  Z M 18.7272727272727 19.2727272727273  L 28.0909090909091 19.2727272727273  L 28.0909090909091 28.9090909090909  L 18.7272727272727 28.9090909090909  L 18.7272727272727 19.2727272727273  Z M 74.9090909090909 19.2727272727273  L 84.2727272727273 19.2727272727273  L 84.2727272727273 28.9090909090909  L 74.9090909090909 28.9090909090909  L 74.9090909090909 19.2727272727273  Z M 10 67  L 10 96  L 38 96  L 38 67  L 10 67  Z M 10 10  L 10 39  L 38 39  L 38 10  L 10 10  Z M 65 10  L 65 39  L 93 39  L 93 10  L 65 10  Z M 0 57  L 47 57  L 47 106  L 0 106  L 0 57  Z M 74.9090909090909 96.3636363636364  L 84.2727272727273 96.3636363636364  L 84.2727272727273 106  L 74.9090909090909 106  L 74.9090909090909 96.3636363636364  Z M 93.6363636363636 96.3636363636364  L 103 96.3636363636364  L 103 106  L 93.6363636363636 106  L 93.6363636363636 96.3636363636364  Z M 93.6363636363636 57.8181818181818  L 103 57.8181818181818  L 103 86  L 74.9090909090909 86  L 74.9090909090909 77.0909090909091  L 65 77.0909090909091  L 65 106  L 56 106  L 56 57  L 84 57  L 84 67.4545454545455  L 93.6363636363636 67.4545454545455  L 93.6363636363636 57.8181818181818  Z M 0 0  L 47 0  L 47 49  L 0 49  L 0 0  Z M 56 0  L 103 0  L 103 49  L 56 49  L 56 0  Z " fill-rule="nonzero" fill="#000000" stroke="none" transform="matrix(1 0 0 1 1110 1343 )" />
  </g>
</svg>