<?xml version="1.0" encoding="utf-8"?>
<svg version="1.1" xmlns:xlink="http://www.w3.org/1999/xlink" width="33px" height="33px" xmlns="http://www.w3.org/2000/svg">
  <g transform="matrix(1 0 0 1 -821 -1128 )">
    <path d="M 32.9296875 25.5703125  C 32.9765625 25.6796875  33 25.84375  33 26.0625  C 33 26.484375  32.921875 27.03515625  32.765625 27.71484375  C 32.609375 28.39453125  32.4453125 28.9296875  32.2734375 29.3203125  C 31.9453125 30.1015625  30.9921875 30.9296875  29.4140625 31.8046875  C 27.9453125 32.6015625  26.4921875 33  25.0546875 33  C 24.6328125 33  24.21875 32.97265625  23.8125 32.91796875  C 23.40625 32.86328125  22.95703125 32.765625  22.46484375 32.625  C 21.97265625 32.484375  21.60546875 32.37109375  21.36328125 32.28515625  C 21.12109375 32.19921875  20.6875 32.0390625  20.0625 31.8046875  C 19.4375 31.5703125  19.0546875 31.4296875  18.9140625 31.3828125  C 17.3828125 30.8359375  16.015625 30.1875  14.8125 29.4375  C 12.828125 28.203125  10.765625 26.515625  8.625 24.375  C 6.484375 22.234375  4.796875 20.171875  3.5625 18.1875  C 2.8125 16.984375  2.1640625 15.6171875  1.6171875 14.0859375  C 1.5703125 13.9453125  1.4296875 13.5625  1.1953125 12.9375  C 0.9609375 12.3125  0.80078125 11.87890625  0.71484375 11.63671875  C 0.62890625 11.39453125  0.515625 11.02734375  0.375 10.53515625  C 0.234375 10.04296875  0.13671875 9.59375  0.08203125 9.1875  C 0.02734375 8.78125  0 8.3671875  0 7.9453125  C 0 6.5078125  0.3984375 5.0546875  1.1953125 3.5859375  C 2.0703125 2.00781249999999  2.8984375 1.0546875  3.6796875 0.726562499999999  C 4.0703125 0.554687499999997  4.60546875 0.390624999999996  5.28515625 0.234374999999999  C 5.96484375 0.0781249999999986  6.515625 0  6.9375 0  C 7.15625 0  7.3203125 0.0234375000000007  7.4296875 0.0703124999999983  C 7.7109375 0.164062500000001  8.125 0.7578125  8.671875 1.8515625  C 8.84375 2.1484375  9.078125 2.5703125  9.375 3.1171875  C 9.671875 3.6640625  9.9453125 4.16015625  10.1953125 4.60546875  C 10.4453125 5.05078125  10.6875 5.46875  10.921875 5.859375  C 10.96875 5.921875  11.10546875 6.1171875  11.33203125 6.4453125  C 11.55859375 6.7734375  11.7265625 7.05078125  11.8359375 7.27734375  C 11.9453125 7.50390625  12 7.7265625  12 7.9453125  C 12 8.2578125  11.77734375 8.6484375  11.33203125 9.1171875  C 10.88671875 9.5859375  10.40234375 10.015625  9.87890625 10.40625  C 9.35546875 10.796875  8.87109375 11.2109375  8.42578125 11.6484375  C 7.98046875 12.0859375  7.7578125 12.4453125  7.7578125 12.7265625  C 7.7578125 12.8671875  7.796875 13.04296875  7.875 13.25390625  C 7.953125 13.46484375  8.01953125 13.625  8.07421875 13.734375  C 8.12890625 13.84375  8.23828125 14.03125  8.40234375 14.296875  C 8.56640625 14.5625  8.65625 14.7109375  8.671875 14.7421875  C 9.859375 16.8828125  11.21875 18.71875  12.75 20.25  C 14.28125 21.78125  16.1171875 23.140625  18.2578125 24.328125  C 18.2890625 24.34375  18.4375 24.43359375  18.703125 24.59765625  C 18.96875 24.76171875  19.15625 24.87109375  19.265625 24.92578125  C 19.375 24.98046875  19.53515625 25.046875  19.74609375 25.125  C 19.95703125 25.203125  20.1328125 25.2421875  20.2734375 25.2421875  C 20.5546875 25.2421875  20.9140625 25.01953125  21.3515625 24.57421875  C 21.7890625 24.12890625  22.203125 23.64453125  22.59375 23.12109375  C 22.984375 22.59765625  23.4140625 22.11328125  23.8828125 21.66796875  C 24.3515625 21.22265625  24.7421875 21  25.0546875 21  C 25.2734375 21  25.49609375 21.0546875  25.72265625 21.1640625  C 25.94921875 21.2734375  26.2265625 21.44140625  26.5546875 21.66796875  C 26.8828125 21.89453125  27.078125 22.03125  27.140625 22.078125  C 27.53125 22.3125  27.94921875 22.5546875  28.39453125 22.8046875  C 28.83984375 23.0546875  29.3359375 23.328125  29.8828125 23.625  C 30.4296875 23.921875  30.8515625 24.15625  31.1484375 24.328125  C 32.2421875 24.875  32.8359375 25.2890625  32.9296875 25.5703125  Z " fill-rule="nonzero" fill="#ffffff" stroke="none" transform="matrix(1 0 0 1 821 1128 )" />
  </g>
</svg>