<?xml version="1.0" encoding="utf-8"?>
<svg version="1.1" xmlns:xlink="http://www.w3.org/1999/xlink" width="21px" height="33px" xmlns="http://www.w3.org/2000/svg">
  <g transform="matrix(1 0 0 1 -827 -1272 )">
    <path d="M 14.2119140625 14.888671875  C 15.2373046875 13.814453125  15.75 12.5182291666667  15.75 11  C 15.75 9.48177083333333  15.2373046875 8.185546875  14.2119140625 7.111328125  C 13.1865234375 6.037109375  11.94921875 5.5  10.5 5.5  C 9.05078125 5.5  7.8134765625 6.037109375  6.7880859375 7.111328125  C 5.7626953125 8.185546875  5.25 9.48177083333333  5.25 11  C 5.25 12.5182291666667  5.7626953125 13.814453125  6.7880859375 14.888671875  C 7.8134765625 15.962890625  9.05078125 16.5  10.5 16.5  C 11.94921875 16.5  13.1865234375 15.962890625  14.2119140625 14.888671875  Z M 17.923828125 3.22265625  C 19.974609375 5.37109375  21 7.96354166666666  21 11  C 21 12.5611979166667  20.7744140625 13.8430989583333  20.3232421875 14.845703125  L 12.8583984375 31.474609375  C 12.6396484375 31.947265625  12.31494140625 32.3196614583333  11.88427734375 32.591796875  C 11.45361328125 32.8639322916667  10.9921875 33  10.5 33  C 10.0078125 33  9.54638671875 32.8639322916667  9.11572265625 32.591796875  C 8.68505859375 32.3196614583333  8.3671875 31.947265625  8.162109375 31.474609375  L 0.6767578125 14.845703125  C 0.2255859375 13.8430989583333  0 12.5611979166667  0 11  C 0 7.96354166666666  1.025390625 5.37109375  3.076171875 3.22265625  C 5.126953125 1.07421875  7.6015625 0  10.5 0  C 13.3984375 0  15.873046875 1.07421875  17.923828125 3.22265625  Z " fill-rule="nonzero" fill="#ffffff" stroke="none" transform="matrix(1 0 0 1 827 1272 )" />
  </g>
</svg>