<?xml version="1.0" encoding="utf-8"?>
<svg version="1.1" xmlns:xlink="http://www.w3.org/1999/xlink" width="105px" height="97px" xmlns="http://www.w3.org/2000/svg">
  <g transform="matrix(1 0 0 1 -436 -898 )">
    <path d="M 59.4278953229399 81.5231370192308  C 59.7981625835189 81.1539463141026  59.9832962138085 80.6973157051282  60 80.1532451923077  L 60 69.0775240384615  C 59.9832962138085 68.533453525641  59.7981625835189 68.0768229166667  59.4278953229399 67.7076322115385  C 59.0576280623608 67.3384415064103  58.619153674833 67.1538461538461  58.1124721603564 67  L 46.8875278396437 67  C 46.380846325167 67.1538461538461  45.9423719376392 67.3384415064103  45.5721046770601 67.7076322115385  C 45.2018374164811 68.0768229166667  45.0167037861915 68.533453525641  45 69.0775240384615  L 45 80.1532451923077  C 45.0167037861915 80.6973157051282  45.2018374164811 81.1539463141026  45.5721046770601 81.5231370192308  C 45.9423719376392 81.892327724359  46.380846325167 82.0769230769231  46.8875278396437 82  L 58.1124721603564 82  C 58.619153674833 82.0769230769231  59.0576280623608 81.892327724359  59.4278953229399 81.5231370192308  Z M 59.2525055679287 59.3134014423077  C 59.6227728285078 59.060797275641  59.8273942093541 58.7401842948718  59.8663697104677 58.3515625  L 60.9187082405345 31.5949519230769  C 60.9187082405345 31.1286057692308  60.7238307349666 30.7594150641026  60.3340757238307 30.4873798076923  C 59.8273942093541 30.0598958333333  59.3596881959911 29.8461538461538  58.9309576837417 30  L 46.0690423162583 30  C 45.6403118040089 29.8461538461538  45.1726057906459 30.0598958333333  44.6659242761693 30.4873798076923  C 44.2761692650334 30.7594150641026  44.0812917594655 31.1674679487179  44.0812917594655 31.7115384615385  L 45.0751670378619 58.3515625  C 45.0751670378619 58.7401842948718  45.2700445434298 59.060797275641  45.6597995545657 59.3134014423077  C 46.0495545657016 59.5660056089744  46.5172605790646 59.6923076923077  47.0629175946548 59  L 57.8786191536748 59  C 58.424276169265 59.6923076923077  58.8822383073497 59.5660056089744  59.2525055679287 59.3134014423077  Z M 56.3001113585746 1.04927884615385  C 57.4693763919822 1.74879807692308  58.3853006681515 2.70092147435897  59.0478841870824 3.90564903846154  L 103.947661469933 85.9825721153846  C 105.311804008909 88.4308894230769  105.272828507795 90.8792067307692  103.830734966592 93.3275240384615  C 103.168151447661 94.4545272435897  102.261971046771 95.3483573717949  101.11219376392 96.0090144230769  C 99.9624164810691 96.669671474359  98.7249443207127 97  97.3997772828508 97  L 7.60022271714922 97  C 6.27505567928731 97  5.03758351893096 96.669671474359  3.88780623608018 96.0090144230769  C 2.7380289532294 95.3483573717949  1.83184855233853 94.4545272435897  1.16926503340757 93.3275240384615  C -0.2728285077951 90.8792067307692  -0.311804008908686 88.4308894230769  1.05233853006682 85.9825721153846  L 45.9521158129176 3.90564903846154  C 46.6146993318486 2.70092147435897  47.5306236080178 1.74879807692308  48.6998886414254 1.04927884615385  C 49.869153674833 0.34975961538462  51.1358574610245 0  52.5 0  C 53.8641425389755 0  55.130846325167 0.34975961538462  56.3001113585746 1.04927884615385  Z " fill-rule="nonzero" fill="#ec6416" stroke="none" transform="matrix(1 0 0 1 436 898 )" />
  </g>
</svg>