<?xml version="1.0" encoding="utf-8"?>
<svg version="1.1" xmlns:xlink="http://www.w3.org/1999/xlink" width="103px" height="65px" xmlns="http://www.w3.org/2000/svg">
  <g transform="matrix(1 0 0 1 -1268 -402 )">
    <path d="M 1268 402  L 1371 402  L 1371 467  L 1268 467  L 1268 402  " fill-rule="nonzero" fill="#cccccc" stroke="none" />
    <path d="M 1273 407  L 1366 407  L 1366 462  L 1273 462  L 1273 407  " fill-rule="nonzero" fill="#ffffff" stroke="none" />
    <path d="M 1326.435 421.5  C 1323.705 421.5  1321.56 419.355  1321.56 416.625  C 1321.56 413.895  1323.705 411.75  1326.435 411.75  C 1329.165 411.75  1331.31 413.895  1331.31 416.625  C 1331.31 419.355  1329.165 421.5  1326.435 421.5  " fill-rule="nonzero" fill="#cccccc" stroke="none" />
    <path d="M 1275 461  L 1275 432.4  L 1297.5 419.4  L 1329 441.31067961165  L 1347 427.2  L 1365 441.31067961165  L 1365 461  L 1275 461  " fill-rule="nonzero" fill="#169bd5" stroke="none" />
  </g>
</svg>