<?xml version="1.0" encoding="utf-8"?>
<svg version="1.1" xmlns:xlink="http://www.w3.org/1999/xlink" width="117px" height="118px" xmlns="http://www.w3.org/2000/svg">
  <g transform="matrix(1 0 0 1 -1043 -787 )">
    <path d="M 22 85  L 32 85  L 32 96  L 22 96  L 22 85  Z M 22 22  L 32 22  L 32 33  L 22 33  L 22 22  Z M 85 22  L 95 22  L 95 32.1818181818182  L 85 32.1818181818182  L 85 22  Z M 11 75  L 11 107  L 43 107  L 43 75  L 11 75  Z M 11 11  L 11 43  L 43 43  L 43 11  L 11 11  Z M 74 11  L 74 43  L 106 43  L 106 11  L 74 11  Z M 0 64  L 54 64  L 54 118  L 0 118  L 0 64  Z M 85 107  L 95 107  L 95 118  L 85 118  L 85 107  Z M 106 107  L 117 107  L 117 118  L 106 118  L 106 107  Z M 106 64  L 117 64  L 117 96  L 85 96  L 85 85  L 74 85  L 74 118  L 63 118  L 63 64  L 95 64  L 95 75  L 106 75  L 106 64  Z M 0 0  L 54 0  L 54 54  L 0 54  L 0 0  Z M 63 0  L 117 0  L 117 54  L 63 54  L 63 0  Z " fill-rule="nonzero" fill="#000000" stroke="none" transform="matrix(1 0 0 1 1043 787 )" />
  </g>
</svg>