<?xml version="1.0" encoding="utf-8"?>
<svg version="1.1" xmlns:xlink="http://www.w3.org/1999/xlink" width="23px" height="15px" xmlns="http://www.w3.org/2000/svg">
  <g transform="matrix(1 0 0 1 -502 -845 )">
    <path d="M 17.0767299107143 11.7513020833333  C 18.7923177083333 10.6966145833333  20.2191220238095 9.27951388888889  21.3571428571429 7.5  C 20.0565476190476 5.45138888888889  18.426525297619 3.91927083333333  16.4670758928571 2.90364583333333  C 16.989025297619 3.80642361111111  17.25 4.78298611111111  17.25 5.83333333333333  C 17.25 7.43923611111111  16.6874069940476 8.81293402777778  15.5622209821429 9.95442708333333  C 14.4370349702381 11.0959201388889  13.0829613095238 11.6666666666667  11.5 11.6666666666667  C 9.91703869047619 11.6666666666667  8.56296502976191 11.0959201388889  7.43777901785714 9.95442708333333  C 6.31259300595238 8.81293402777778  5.75 7.43923611111111  5.75 5.83333333333333  C 5.75 4.78298611111111  6.01097470238095 3.80642361111111  6.53292410714286 2.90364583333333  C 4.57347470238095 3.91927083333333  2.94345238095238 5.45138888888889  1.64285714285714 7.5  C 2.78087797619048 9.27951388888889  4.20768229166667 10.6966145833333  5.92327008928571 11.7513020833333  C 7.63885788690476 12.8059895833333  9.49776785714286 13.3333333333333  11.5 13.3333333333333  C 13.5022321428571 13.3333333333333  15.3611421130952 12.8059895833333  17.0767299107143 11.7513020833333  Z M 11.9363839285714 2.94270833333333  C 12.0561755952381 2.82118055555556  12.1160714285714 2.67361111111111  12.1160714285714 2.5  C 12.1160714285714 2.32638888888889  12.0561755952381 2.17881944444444  11.9363839285714 2.05729166666667  C 11.8165922619048 1.93576388888889  11.671130952381 1.875  11.5 1.875  C 10.430431547619 1.875  9.51274181547619 2.26345486111111  8.74693080357143 3.04036458333333  C 7.98111979166667 3.81727430555556  7.59821428571429 4.74826388888889  7.59821428571429 5.83333333333333  C 7.59821428571429 6.00694444444444  7.65811011904762 6.15451388888889  7.77790178571429 6.27604166666667  C 7.89769345238095 6.39756944444444  8.04315476190476 6.45833333333333  8.21428571428572 6.45833333333333  C 8.38541666666667 6.45833333333333  8.53087797619048 6.39756944444444  8.65066964285714 6.27604166666667  C 8.77046130952381 6.15451388888889  8.83035714285714 6.00694444444444  8.83035714285714 5.83333333333333  C 8.83035714285714 5.08680555555556  9.09133184523809 4.44878472222222  9.61328125 3.91927083333333  C 10.1352306547619 3.38975694444444  10.7641369047619 3.125  11.5 3.125  C 11.671130952381 3.125  11.8165922619048 3.06423611111111  11.9363839285714 2.94270833333333  Z M 22.7433035714286 6.6015625  C 22.9144345238095 6.90538194444444  23 7.20486111111111  23 7.5  C 23 7.79513888888889  22.9144345238095 8.09461805555556  22.7433035714286 8.3984375  C 21.5453869047619 10.3949652777778  19.9346168154762 11.9943576388889  17.9109933035714 13.1966145833333  C 15.8873697916667 14.3988715277778  13.7503720238095 15  11.5 15  C 9.24962797619048 15  7.11263020833333 14.3967013888889  5.08900669642857 13.1901041666667  C 3.06538318452381 11.9835069444444  1.4546130952381 10.3862847222222  0.256696428571429 8.3984375  C 0.0855654761904762 8.09461805555556  0 7.79513888888889  0 7.5  C 0 7.20486111111111  0.0855654761904762 6.90538194444444  0.256696428571429 6.6015625  C 1.4546130952381 4.61371527777778  3.06538318452381 3.01649305555555  5.08900669642857 1.80989583333333  C 7.11263020833333 0.60329861111111  9.24962797619048 0  11.5 0  C 13.7503720238095 0  15.8873697916667 0.60329861111111  17.9109933035714 1.80989583333333  C 19.9346168154762 3.01649305555555  21.5453869047619 4.61371527777778  22.7433035714286 6.6015625  Z " fill-rule="nonzero" fill="#b6b4b4" stroke="none" transform="matrix(1 0 0 1 502 845 )" />
  </g>
</svg>