<?xml version="1.0" encoding="utf-8"?>
<svg version="1.1" xmlns:xlink="http://www.w3.org/1999/xlink" width="19px" height="17px" xmlns="http://www.w3.org/2000/svg">
  <g transform="matrix(1 0 0 1 -676 -1392 )">
    <path d="M 2.51283482142857 13.9563802083333  C 2.64713541666667 13.8161892361111  2.71428571428571 13.6501736111111  2.71428571428571 13.4583333333333  C 2.71428571428571 13.2664930555556  2.64713541666667 13.1004774305556  2.51283482142857 12.9602864583333  C 2.37853422619048 12.8200954861111  2.21949404761905 12.75  2.03571428571429 12.75  C 1.85193452380952 12.75  1.6928943452381 12.8200954861111  1.55859375 12.9602864583333  C 1.4242931547619 13.1004774305556  1.35714285714286 13.2664930555556  1.35714285714286 13.4583333333333  C 1.35714285714286 13.6501736111111  1.4242931547619 13.8161892361111  1.55859375 13.9563802083333  C 1.6928943452381 14.0965711805556  1.85193452380952 14.1666666666667  2.03571428571429 14.1666666666667  C 2.21949404761905 14.1666666666667  2.37853422619048 14.0965711805556  2.51283482142857 13.9563802083333  Z M 17.2399553571429 8.07942708333333  C 17.5085565476191 7.79904513888889  17.6428571428571 7.46701388888889  17.6428571428571 7.08333333333333  C 17.6428571428571 6.70703125  17.5050223214286 6.37684461805555  17.2293526785714 6.0927734375  C 16.9536830357143 5.80870225694444  16.6391369047619 5.66666666666667  16.2857142857143 5.66666666666667  L 10.1785714285714 5.66666666666667  C 10.1785714285714 5.51909722222222  10.2315848214286 5.34016927083333  10.3376116071429 5.1298828125  C 10.4436383928571 4.91959635416667  10.5602678571429 4.71668836805555  10.6875 4.52115885416667  C 10.8147321428571 4.32562934027778  10.9313616071429 4.07476128472222  11.0373883928571 3.7685546875  C 11.1434151785714 3.46234809027778  11.1964285714286 3.15060763888889  11.1964285714286 2.83333333333333  C 11.1964285714286 2.33897569444444  11.0391555059524 1.97927517361111  10.724609375 1.75423177083333  C 10.4100632440476 1.52918836805555  10.0018601190476 1.41666666666667  9.5 1.41666666666667  C 9.33035714285714 1.41666666666667  9.01227678571429 1.92947048611111  8.54575892857143 2.955078125  C 8.37611607142857 3.27973090277778  8.24534970238095 3.51953125  8.15345982142857 3.67447916666667  C 7.87072172619048 4.14670138888889  7.47488839285714 4.681640625  6.96595982142857 5.279296875  C 6.46409970238095 5.876953125  6.10714285714286 6.26801215277778  5.89508928571429 6.45247395833333  C 5.40736607142857 6.873046875  4.91257440476191 7.08333333333333  4.41071428571429 7.08333333333333  L 4.07142857142857 7.08333333333333  L 4.07142857142857 14.1666666666667  L 4.41071428571429 14.1666666666667  C 4.91964285714286 14.1666666666667  5.50985863095238 14.2847222222222  6.18136160714286 14.5208333333333  C 6.85286458333333 14.7569444444444  7.53673735119048 14.9930555555556  8.23297991071429 15.2291666666667  C 8.9292224702381 15.4652777777778  9.56361607142857 15.5833333333333  10.1361607142857 15.5833333333333  C 11.4720982142857 15.5833333333333  12.1400669642857 14.9672309027778  12.1400669642857 13.7350260416667  C 12.1400669642857 13.5431857638889  12.1223958333333 13.3365885416667  12.0870535714286 13.115234375  C 12.2991071428571 12.9971788194444  12.4669828869048 12.8034939236111  12.5906808035714 12.5341796875  C 12.7143787202381 12.2648654513889  12.7762276785714 11.9937065972222  12.7762276785714 11.720703125  C 12.7762276785714 11.4476996527778  12.7126116071429 11.1931423611111  12.5853794642857 10.95703125  C 12.9600074404762 10.5881076388889  13.1473214285714 10.1490885416667  13.1473214285714 9.63997395833333  C 13.1473214285714 9.45551215277778  13.1119791666667 9.25075954861111  13.0412946428571 9.02571614583333  C 12.9706101190476 8.80067274305556  12.8822544642857 8.62543402777778  12.7762276785714 8.5  L 16.2857142857143 8.5  C 16.6532738095238 8.5  16.9713541666667 8.35980902777778  17.2399553571429 8.07942708333333  Z M 18.1941964285714 5.09114583333333  C 18.7313988095238 5.65190972222222  19 6.31228298611111  19 7.072265625  C 19 7.84700520833333  18.7331659226191 8.51475694444444  18.1994977678571 9.07552083333333  C 17.6658296130952 9.63628472222222  17.0279017857143 9.91666666666667  16.2857142857143 9.91666666666667  L 14.4938616071429 9.91666666666667  C 14.465587797619 10.3741319444444  14.3348214285714 10.8131510416667  14.1015625 11.2337239583333  C 14.1227678571429 11.388671875  14.1333705357143 11.5473090277778  14.1333705357143 11.7096354166667  C 14.1333705357143 12.4548611111111  13.9213169642857 13.1115451388889  13.4972098214286 13.6796875  C 13.5042782738095 14.7052951388889  13.203869047619 15.5150824652778  12.5959821428571 16.1090494791667  C 11.9880952380952 16.7030164930556  11.1858258928571 17  10.1891741071429 17  C 9.24906994047619 17  8.11104910714286 16.7454427083333  6.77511160714286 16.236328125  C 5.61588541666667 15.8009982638889  4.82775297619048 15.5833333333333  4.41071428571429 15.5833333333333  L 1.35714285714286 15.5833333333333  C 0.982514880952381 15.5833333333333  0.662667410714286 15.4449869791667  0.397600446428571 15.1682942708333  C 0.132533482142857 14.8916015625  0 14.5577256944444  0 14.1666666666667  L 0 7.08333333333333  C 0 6.69227430555556  0.132533482142857 6.3583984375  0.397600446428571 6.08170572916667  C 0.662667410714286 5.80501302083333  0.982514880952381 5.66666666666667  1.35714285714286 5.66666666666667  L 4.41071428571429 5.66666666666667  C 4.48139880952381 5.66666666666667  4.55738467261905 5.65006510416667  4.638671875 5.61686197916667  C 4.71995907738095 5.58365885416667  4.80301339285714 5.53200954861111  4.88783482142857 5.4619140625  C 4.97265625 5.39181857638889  5.05217633928571 5.32541232638889  5.12639508928571 5.2626953125  C 5.20061383928571 5.19997829861111  5.28543526785714 5.11697048611111  5.380859375 5.013671875  C 5.47628348214286 4.91037326388889  5.54873511904762 4.8310546875  5.59821428571429 4.77571614583333  C 5.64769345238095 4.72037760416667  5.71484375 4.64105902777778  5.79966517857143 4.53776041666667  C 5.88448660714286 4.43446180555555  5.93396577380952 4.37174479166667  5.94810267857143 4.349609375  C 6.40755208333333 3.80360243055555  6.76097470238095 3.32769097222222  7.00837053571429 2.921875  C 7.10026041666667 2.76692708333333  7.21688988095238 2.53819444444444  7.35825892857143 2.23567708333333  C 7.49962797619048 1.93315972222222  7.6303943452381 1.66753472222222  7.75055803571429 1.43880208333333  C 7.87072172619048 1.21006944444444  8.01385788690476 0.977647569444443  8.17996651785714 0.741536458333333  C 8.34607514880953 0.505425347222221  8.54045758928572 0.322808159722221  8.76311383928571 0.193684895833333  C 8.98577008928572 0.064561631944443  9.23139880952381 0  9.5 0  C 10.383556547619 0  11.1133742559524 0.247178819444443  11.689453125 0.741536458333333  C 12.2655319940476 1.23589409722222  12.5535714285714 1.93315972222222  12.5535714285714 2.83333333333333  C 12.5535714285714 3.33506944444444  12.475818452381 3.80729166666667  12.3203125 4.25  L 16.2857142857143 4.25  C 17.0208333333333 4.25  17.6569940476191 4.53038194444444  18.1941964285714 5.09114583333333  Z " fill-rule="nonzero" fill="#ffffff" stroke="none" transform="matrix(1 0 0 1 676 1392 )" />
  </g>
</svg>