<?xml version="1.0" encoding="utf-8"?>
<svg version="1.1" xmlns:xlink="http://www.w3.org/1999/xlink" width="12px" height="16px" xmlns="http://www.w3.org/2000/svg">
  <g transform="matrix(1 0 0 1 -389 -202 )">
    <path d="M 7.30866601752678 15.8920454545455  C 7.23466407010711 15.9640151515152  7.14703018500487 16  7.04576436222006 16  L 5.03602726387536 16  C 4.93476144109056 16  4.84712755598832 15.9659090909091  4.77312560856865 15.8977272727273  C 4.69912366114898 15.8295454545455  4.66212268743914 15.7424242424242  4.66212268743914 15.6363636363636  L 4.66212268743914 11.8863636363636  L 1.29698149951315 11.8863636363636  C 1.19571567672834 11.8863636363636  1.1080817916261 11.8522727272727  1.03407984420643 11.7840909090909  C 0.960077896786758 11.7159090909091  0.923076923076923 11.6287878787879  0.923076923076923 11.5227272727273  L 0.923076923076923 10.3522727272727  C 0.923076923076923 10.2537878787879  0.960077896786758 10.1685606060606  1.03407984420643 10.0965909090909  C 1.1080817916261 10.0246212121212  1.19571567672834 9.98863636363636  1.29698149951315 9.98863636363636  L 4.66212268743914 9.98863636363636  L 4.66212268743914 9.02272727272727  L 1.29698149951315 9.02272727272727  C 1.19571567672834 9.02272727272727  1.1080817916261 8.98863636363636  1.03407984420643 8.92045454545455  C 0.960077896786758 8.85227272727273  0.923076923076923 8.76515151515152  0.923076923076923 8.65909090909091  L 0.923076923076923 7.47727272727273  C 0.923076923076923 7.37878787878788  0.960077896786758 7.29356060606061  1.03407984420643 7.22159090909091  C 1.1080817916261 7.14962121212121  1.19571567672834 7.11363636363636  1.29698149951315 7.11363636363636  L 3.79746835443038 7.11363636363636  L 0.0467380720545277 0.545454545454545  C -0.0155793573515093 0.424242424242424  -0.0155793573515093 0.303030303030301  0.0467380720545277 0.181818181818182  C 0.124634858812074 0.0606060606060606  0.233690360272639 0  0.373904576436222 0  L 2.64070107108082 0  C 2.78870496592016 0  2.9016553067186 0.0681818181818183  2.97955209347614 0.204545454545455  L 5.49172346640701 5.03409090909091  C 5.63972736124635 5.3219696969697  5.85783836416748 5.79545454545455  6.1460564751704 6.45454545454546  C 6.22395326192795 6.27272727272727  6.3427458617332 6.01515151515151  6.50243427458617 5.68181818181818  C 6.66212268743914 5.34848484848485  6.76923076923077 5.11742424242424  6.82375851996105 4.98863636363636  L 9.05550146056475 0.215909090909092  C 9.11781888997079 0.0719696969696955  9.23076923076923 0  9.39435248296008 0  L 11.6260954235638 0  C 11.7585199610516 0  11.8636806231743 0.0606060606060606  11.9415774099318 0.181818181818182  C 12.0116845180136 0.287878787878787  12.0155793573515 0.405303030303029  11.9532619279455 0.534090909090908  L 8.29600778967868 7.11363636363636  L 10.8081791626095 7.11363636363636  C 10.9094449853944 7.11363636363636  10.9970788704966 7.14962121212121  11.0710808179163 7.22159090909091  C 11.1450827653359 7.29356060606061  11.1820837390458 7.37878787878788  11.1820837390458 7.47727272727273  L 11.1820837390458 8.65909090909091  C 11.1820837390458 8.76515151515152  11.1450827653359 8.85227272727273  11.0710808179163 8.92045454545455  C 10.9970788704966 8.98863636363636  10.9094449853944 9.02272727272727  10.8081791626095 9.02272727272727  L 7.41966893865628 9.02272727272727  L 7.41966893865628 9.98863636363636  L 10.8081791626095 9.98863636363636  C 10.9094449853944 9.98863636363636  10.9970788704966 10.0246212121212  11.0710808179163 10.0965909090909  C 11.1450827653359 10.1685606060606  11.1820837390458 10.2537878787879  11.1820837390458 10.3522727272727  L 11.1820837390458 11.5227272727273  C 11.1820837390458 11.6287878787879  11.1450827653359 11.7159090909091  11.0710808179163 11.7840909090909  C 10.9970788704966 11.8522727272727  10.9094449853944 11.8863636363636  10.8081791626095 11.8863636363636  L 7.41966893865628 11.8863636363636  L 7.41966893865628 15.6363636363636  C 7.41966893865628 15.7348484848485  7.38266796494645 15.8200757575758  7.30866601752678 15.8920454545455  Z " fill-rule="nonzero" fill="#4784e6" stroke="none" transform="matrix(1 0 0 1 389 202 )" />
  </g>
</svg>