<?xml version="1.0" encoding="utf-8"?>
<svg version="1.1" xmlns:xlink="http://www.w3.org/1999/xlink" width="38px" height="42px" xmlns="http://www.w3.org/2000/svg">
  <g transform="matrix(1 0 0 1 -1109 -190 )">
    <path d="M 37.74765625 30.365234375  C 37.9158854166667 31.7415364583333  38 33.2044270833333  38 34.75390625  C 38 36.7408854166667  37.3815104166667 38.4453125  36.14453125 39.8671875  C 34.9075520833333 41.2890625  33.4182291666667 42  31.6765625 42  L 6.3234375 42  C 4.58177083333333 42  3.09244791666667 41.2890625  1.85546875 39.8671875  C 0.618489583333333 38.4453125  0 36.7408854166667  0 34.75390625  C 0 33.2044270833333  0.0841145833333335 31.7415364583333  0.25234375 30.365234375  C 0.420572916666667 28.9889322916667  0.732291666666667 27.603515625  1.1875 26.208984375  C 1.64270833333333 24.814453125  2.22161458333333 23.6204427083333  2.92421875 22.626953125  C 3.62682291666667 21.6334635416667  4.55703125 20.822265625  5.71484375 20.193359375  C 6.87265625 19.564453125  8.20364583333333 19.25  9.7078125 19.25  C 12.3005208333333 21.5833333333333  15.3979166666667 22.75  19 22.75  C 22.6020833333333 22.75  25.6994791666667 21.5833333333333  28.2921875 19.25  C 29.7963541666667 19.25  31.12734375 19.564453125  32.28515625 20.193359375  C 33.44296875 20.822265625  34.3731770833333 21.6334635416667  35.07578125 22.626953125  C 35.7783854166667 23.6204427083333  36.3572916666667 24.814453125  36.8125 26.208984375  C 37.2677083333333 27.603515625  37.5794270833333 28.9889322916667  37.74765625 30.365234375  Z M 27.06015625 3.076171875  C 29.28671875 5.126953125  30.4 7.6015625  30.4 10.5  C 30.4 13.3984375  29.28671875 15.873046875  27.06015625 17.923828125  C 24.83359375 19.974609375  22.146875 21  19 21  C 15.853125 21  13.16640625 19.974609375  10.93984375 17.923828125  C 8.71328125 15.873046875  7.6 13.3984375  7.6 10.5  C 7.6 7.6015625  8.71328125 5.126953125  10.93984375 3.076171875  C 13.16640625 1.025390625  15.853125 0  19 0  C 22.146875 0  24.83359375 1.025390625  27.06015625 3.076171875  Z " fill-rule="nonzero" fill="#a2a2a2" stroke="none" transform="matrix(1 0 0 1 1109 190 )" />
  </g>
</svg>